<svg width="1761.394970703125px" height="98.4125px" xmlns="http://www.w3.org/2000/svg" viewBox="-630.6974853515625 25.793750000000003 1761.394970703125 98.4125" style="background: none;" preserveAspectRatio="xMidYMid"><defs><linearGradient id="editing-shadow-gradient1" x1="0" x2="0" y1="0" y2="1"><stop offset="0" stop-color="#ffffff" stop-opacity="0"></stop><stop offset="0.2" stop-color="#ffffff" stop-opacity="0"></stop><stop offset="1" stop-color="#ffffff" stop-opacity="1"></stop></linearGradient><linearGradient id="editing-shadow-gradient2" x1="-0.5" x2="1.5" y1="0.5" y2="0.5"><stop offset="0" stop-color="#0b0b0b"></stop><stop offset="1" stop-color="#000000"></stop></linearGradient><filter id="editing-shadow" x="-100%" y="-100%" width="300%" height="300%"><feGaussianBlur stdDeviation="20"></feGaussianBlur><feComposite operator="in" in2="SourceGraphic"></feComposite><feGaussianBlur stdDeviation="10"></feGaussianBlur></filter></defs><g transform="translate(250,75)"><g transform="translate(-24.7, 0.4)"><g transform="skewX(45)"><g filter="url(#editing-shadow)"><g transform="translate(-610.909975528717, 22.78499984741211)"><path d="M2.06-30.38L2.06-30.38L2.06-30.38Q2.74-31.75 4.24-32.51L4.24-32.51L4.24-32.51Q5.73-33.27 7.79-33.27L7.79-33.27L7.79-33.27Q11.03-33.27 12.96-30.94L12.96-30.94L12.96-30.94Q14.90-28.62 14.90-23.52L14.90-23.52L14.90-6.03L26.12-32.29L31.90-32.29L33.22-7.50L33.08-6.08L44.74-32.29L51.45-32.29L35.77 0L25.33 0L24.35-14.90L17.89 0L6.08 0L4.61-23.52L4.61-23.52Q4.46-26.17 3.75-27.91L3.75-27.91L3.75-27.91Q3.04-29.64 2.06-30.38ZM68.36-8.28L68.36-8.28L68.36-8.28Q69.58-7.45 69.58-5.61L69.58-5.61L69.58-5.61Q69.58-3.77 68.65-2.60L68.65-2.60L68.65-2.60Q67.72-1.42 66.20-0.64L66.20-0.64L66.20-0.64Q63.06 0.98 59.68 0.98L59.68 0.98L59.68 0.98Q56.30 0.98 54.32 0.24L54.32 0.24L54.32 0.24Q52.33-0.49 51.01-1.86L51.01-1.86L51.01-1.86Q48.41-4.46 48.41-9.21L48.41-9.21L48.41-9.21Q48.41-16.61 52.43-21.12L52.43-21.12L52.43-21.12Q56.74-25.97 64.24-25.97L64.24-25.97L64.24-25.97Q68.89-25.97 71.20-24.01L71.20-24.01L71.20-24.01Q72.91-22.54 72.91-20.14L72.91-20.14L72.91-20.14Q72.91-11.52 58.02-11.52L58.02-11.52L58.02-11.52Q57.82-10.24 57.82-9.16L57.82-9.16L57.82-9.16Q57.82-6.91 58.82-6.05L58.82-6.05L58.82-6.05Q59.83-5.19 61.69-5.19L61.69-5.19L61.69-5.19Q63.55-5.19 65.54-6.05L65.54-6.05L65.54-6.05Q67.52-6.91 68.36-8.28ZM58.36-13.62L58.36-13.62L58.36-13.62Q61.84-13.62 63.85-15.78L63.85-15.78L63.85-15.78Q65.86-17.84 65.86-21.12L65.86-21.12L65.86-21.12Q65.86-22.25 65.44-22.86L65.44-22.86L65.44-22.86Q65.02-23.47 64.19-23.47L64.19-23.47L64.19-23.47Q63.36-23.47 62.65-23.15L62.65-23.15L62.65-23.15Q61.94-22.83 61.20-21.76L61.20-21.76L61.20-21.76Q59.39-19.31 58.36-13.62ZM86.29-2.70L86.29-2.70L86.29-2.70Q84.77 0.98 79.92 0.98L79.92 0.98L79.92 0.98Q77.47 0.98 75.90-0.73L75.90-0.73L75.90-0.73Q74.63-2.16 74.63-3.77L74.63-3.77L74.63-3.77Q74.63-7.45 76.34-15.48L76.34-15.48L79.92-34.30L89.87-35.28L85.11-10.49L85.11-10.49Q84.28-6.86 84.28-5.59L84.28-5.59L84.28-5.59Q84.28-2.79 86.29-2.70ZM114.51-20.38L114.51-20.38L114.51-20.38Q114.51-18.33 112.80-17.05L112.80-17.05L112.80-17.05Q111.08-15.78 108.29-15.78L108.29-15.78L108.29-15.78Q107.11-15.78 106.43-16.12L106.43-16.12L106.43-16.12Q106.97-17.39 107.14-18.99L107.14-18.99L107.14-18.99Q107.31-20.58 107.31-21.02L107.31-21.02L107.31-21.02Q107.31-23.08 105.89-23.08L105.89-23.08L105.89-23.08Q104.91-23.08 103.81-21.85L103.81-21.85L103.81-21.85Q102.70-20.63 101.77-18.72L101.77-18.72L101.77-18.72Q99.72-14.31 99.72-9.85L99.72-9.85L99.72-9.85Q99.72-7.40 100.65-6.30L100.65-6.30L100.65-6.30Q101.58-5.19 103.64-5.19L103.64-5.19L103.64-5.19Q106.48-5.19 108.73-7.55L108.73-7.55L108.73-7.55Q109.37-8.28 109.71-9.11L109.71-9.11L109.71-9.11Q111.57-8.13 111.57-5.44L111.57-5.44L111.57-5.44Q111.57-2.70 108.54-0.88L108.54-0.88L108.54-0.88Q105.40 0.98 100.40 0.98L100.40 0.98L100.40 0.98Q90.45 0.98 90.45-9.55L90.45-9.55L90.45-9.55Q90.45-17.25 94.82-21.66L94.82-21.66L94.82-21.66Q99.03-25.97 106.77-25.97L106.77-25.97L106.77-25.97Q114.51-25.97 114.51-20.38ZM126.52 0.98L126.52 0.98L126.52 0.98Q115.74 0.98 115.74-9.16L115.74-9.16L115.74-9.16Q115.74-16.37 119.71-21.02L119.71-21.02L119.71-21.02Q123.92-25.97 131.22-25.97L131.22-25.97L131.22-25.97Q136.51-25.97 139.21-23.52L139.21-23.52L139.21-23.52Q141.90-21.07 141.90-15.93L141.90-15.93L141.90-15.93Q141.90-8.09 137.69-3.53L137.69-3.53L137.69-3.53Q133.57 0.98 126.52 0.98ZM127.79-20.34L127.79-20.34L127.79-20.34Q127.20-19.01 126.74-17.03L126.74-17.03L126.74-17.03Q126.27-15.04 125.69-11.91L125.69-11.91L125.69-11.91Q125.10-8.77 125.10-4.90L125.10-4.90L125.10-4.90Q125.10-3.63 125.51-2.79L125.51-2.79L125.51-2.79Q125.93-1.96 127.06-1.96L127.06-1.96L127.06-1.96Q128.18-1.96 128.89-2.50L128.89-2.50L128.89-2.50Q129.61-3.04 130.14-4.31L130.14-4.31L130.14-4.31Q131.12-6.57 131.91-10.76L131.91-10.76L131.91-10.76Q132.69-14.95 132.77-16.76L132.77-16.76L132.77-16.76Q132.84-18.57 132.84-19.92L132.84-19.92L132.84-19.92Q132.84-21.27 132.45-22.15L132.45-22.15L132.45-22.15Q132.06-23.03 130.95-23.03L130.95-23.03L130.95-23.03Q129.85-23.03 129.12-22.34L129.12-22.34L129.12-22.34Q128.38-21.66 127.79-20.34ZM180.08 0.98L180.08 0.98L180.08 0.98Q174.15 0.98 174.15-3.63L174.15-3.63L174.15-3.63Q174.15-5.63 175.00-9.53L175.00-9.53L175.00-9.53Q175.86-13.43 176.16-14.99L176.16-14.99L176.16-14.99Q176.84-18.57 176.84-19.70L176.84-19.70L176.84-19.70Q176.84-22.20 174.98-22.20L174.98-22.20L174.98-22.20Q173.75-22.20 172.58-20.51L172.58-20.51L172.58-20.51Q171.40-18.82 170.86-15.44L170.86-15.44L167.83 0L158.27 0.98L160.92-12.35L160.92-12.35Q161.36-14.55 161.75-17.05L161.75-17.05L161.75-17.05Q162.14-19.55 162.14-19.94L162.14-19.94L162.14-19.94Q162.14-22.20 160.48-22.20L160.48-22.20L160.48-22.20Q159.35-22.20 158.12-20.53L158.12-20.53L158.12-20.53Q156.90-18.87 156.21-15.44L156.21-15.44L153.22 0L143.57 0.98L148.72-24.99L156.70-25.97L155.87-21.02L155.87-21.02Q157.14-23.67 159.50-24.82L159.50-24.82L159.50-24.82Q161.85-25.97 165.52-25.97L165.52-25.97L165.52-25.97Q167.63-25.97 169.00-24.94L169.00-24.94L169.00-24.94Q170.37-23.91 170.81-22.25L170.81-22.25L170.81-22.25Q171.65-23.96 173.78-24.97L173.78-24.97L173.78-24.97Q175.91-25.97 178.53-25.97L178.53-25.97L178.53-25.97Q181.15-25.97 182.45-25.41L182.45-25.41L182.45-25.41Q183.75-24.84 184.53-23.91L184.53-23.91L184.53-23.91Q185.86-22.20 185.86-19.06L185.86-19.06L185.86-19.06Q185.86-15.97 184.53-9.55L184.53-9.55L184.53-9.55Q183.85-6.42 183.85-5.27L183.85-5.27L183.85-5.27Q183.85-4.12 184.51-3.43L184.51-3.43L184.51-3.43Q185.17-2.74 186.15-2.65L186.15-2.65L186.15-2.65Q185.66-0.98 183.97 0L183.97 0L183.97 0Q182.28 0.98 180.08 0.98ZM209.77-8.28L209.77-8.28L209.77-8.28Q210.99-7.45 210.99-5.61L210.99-5.61L210.99-5.61Q210.99-3.77 210.06-2.60L210.06-2.60L210.06-2.60Q209.13-1.42 207.61-0.64L207.61-0.64L207.61-0.64Q204.48 0.98 201.10 0.98L201.10 0.98L201.10 0.98Q197.72 0.98 195.73 0.24L195.73 0.24L195.73 0.24Q193.75-0.49 192.42-1.86L192.42-1.86L192.42-1.86Q189.83-4.46 189.83-9.21L189.83-9.21L189.83-9.21Q189.83-16.61 193.84-21.12L193.84-21.12L193.84-21.12Q198.16-25.97 205.65-25.97L205.65-25.97L205.65-25.97Q210.31-25.97 212.61-24.01L212.61-24.01L212.61-24.01Q214.33-22.54 214.33-20.14L214.33-20.14L214.33-20.14Q214.33-11.52 199.43-11.52L199.43-11.52L199.43-11.52Q199.23-10.24 199.23-9.16L199.23-9.16L199.23-9.16Q199.23-6.91 200.24-6.05L200.24-6.05L200.24-6.05Q201.24-5.19 203.11-5.19L203.11-5.19L203.11-5.19Q204.97-5.19 206.95-6.05L206.95-6.05L206.95-6.05Q208.94-6.91 209.77-8.28ZM199.77-13.62L199.77-13.62L199.77-13.62Q203.25-13.62 205.26-15.78L205.26-15.78L205.26-15.78Q207.27-17.84 207.27-21.12L207.27-21.12L207.27-21.12Q207.27-22.25 206.85-22.86L206.85-22.86L206.85-22.86Q206.44-23.47 205.60-23.47L205.60-23.47L205.60-23.47Q204.77-23.47 204.06-23.15L204.06-23.15L204.06-23.15Q203.35-22.83 202.62-21.76L202.62-21.76L202.62-21.76Q200.80-19.31 199.77-13.62ZM230.01-23.86L230.01-23.86L230.01-23.86Q228.34-25.14 228.34-27.86L228.34-27.86L228.34-27.86Q228.34-30.58 230.13-32.00L230.13-32.00L230.13-32.00Q231.92-33.42 235.00-33.42L235.00-33.42L235.00-33.42Q236.96-33.42 241.62-32.73L241.62-32.73L244.95-32.24L244.95-32.24Q246.62-32.05 248.36-32.05L248.36-32.05L248.36-32.05Q250.10-32.05 251.27-32.78L251.27-32.78L251.27-32.78Q253.04-31.21 253.04-28.96L253.04-28.96L253.04-28.96Q253.04-26.71 251.03-25.09L251.03-25.09L251.03-25.09Q248.97-23.37 246.32-23.37L246.32-23.37L246.32-23.37Q245.05-23.37 242.99-23.72L242.99-23.72L242.99-23.72Q240.59-16.17 240.59-10.93L240.59-10.93L240.59-10.93Q240.59-5.68 243.24-2.94L243.24-2.94L243.24-2.94Q242.01-0.73 240.20 0.12L240.20 0.12L240.20 0.12Q238.39 0.98 235.67 0.98L235.67 0.98L235.67 0.98Q232.95 0.98 231.26-0.51L231.26-0.51L231.26-0.51Q229.57-2.01 229.57-5.10L229.57-5.10L229.57-5.10Q229.57-8.67 231.53-14.55L231.53-14.55L231.53-14.55Q233.49-20.38 236.43-24.84L236.43-24.84L236.43-24.84Q235.00-24.99 233.53-24.99L233.53-24.99L233.53-24.99Q230.50-24.99 230.01-23.86ZM259.90 0.98L259.90 0.98L259.90 0.98Q249.12 0.98 249.12-9.16L249.12-9.16L249.12-9.16Q249.12-16.37 253.09-21.02L253.09-21.02L253.09-21.02Q257.30-25.97 264.60-25.97L264.60-25.97L264.60-25.97Q269.89-25.97 272.59-23.52L272.59-23.52L272.59-23.52Q275.28-21.07 275.28-15.93L275.28-15.93L275.28-15.93Q275.28-8.09 271.07-3.53L271.07-3.53L271.07-3.53Q266.95 0.98 259.90 0.98ZM261.17-20.34L261.17-20.34L261.17-20.34Q260.58-19.01 260.12-17.03L260.12-17.03L260.12-17.03Q259.65-15.04 259.06-11.91L259.06-11.91L259.06-11.91Q258.48-8.77 258.48-4.90L258.48-4.90L258.48-4.90Q258.48-3.63 258.89-2.79L258.89-2.79L258.89-2.79Q259.31-1.96 260.44-1.96L260.44-1.96L260.44-1.96Q261.56-1.96 262.27-2.50L262.27-2.50L262.27-2.50Q262.98-3.04 263.52-4.31L263.52-4.31L263.52-4.31Q264.50-6.57 265.29-10.76L265.29-10.76L265.29-10.76Q266.07-14.95 266.14-16.76L266.14-16.76L266.14-16.76Q266.22-18.57 266.22-19.92L266.22-19.92L266.22-19.92Q266.22-21.27 265.83-22.15L265.83-22.15L265.83-22.15Q265.43-23.03 264.33-23.03L264.33-23.03L264.33-23.03Q263.23-23.03 262.49-22.34L262.49-22.34L262.49-22.34Q261.76-21.66 261.17-20.34ZM307.38-22.64L307.38-22.64L307.38-22.64Q308.11-24.11 308.11-25.48L308.11-25.48L308.11-25.48Q308.11-26.85 307.97-27.61L307.97-27.61L307.97-27.61Q307.82-28.37 307.48-28.96L307.48-28.96L307.48-28.96Q306.74-30.23 305.27-30.23L305.27-30.23L305.27-30.23Q303.46-30.23 301.99-28.91L301.99-28.91L301.99-28.91Q300.42-27.54 300.42-25.38L300.42-25.38L300.42-25.38Q300.42-24.01 301.37-22.96L301.37-22.96L301.37-22.96Q302.33-21.90 303.80-20.92L303.80-20.92L303.80-20.92Q305.27-19.94 306.94-18.96L306.94-18.96L306.94-18.96Q308.60-17.98 310.07-16.81L310.07-16.81L310.07-16.81Q313.45-14.11 313.45-10.49L313.45-10.49L313.45-10.49Q313.45-8.04 312.15-5.95L312.15-5.95L312.15-5.95Q310.86-3.87 308.70-2.35L308.70-2.35L308.70-2.35Q304.00 0.98 297.77 0.98L297.77 0.98L297.77 0.98Q292.73 0.98 290.13-0.66L290.13-0.66L290.13-0.66Q287.53-2.30 287.53-4.80L287.53-4.80L287.53-4.80Q287.53-9.26 291.01-10.39L291.01-10.39L291.01-10.39Q291.99-10.73 293.49-10.73L293.49-10.73L293.49-10.73Q294.98-10.73 296.70-10.09L296.70-10.09L296.70-10.09Q295.91-8.09 295.91-6.27L295.91-6.27L295.91-6.27Q295.91-2.35 298.70-2.35L298.70-2.35L298.70-2.35Q300.52-2.35 302.01-3.68L302.01-3.68L302.01-3.68Q303.51-5.00 303.51-6.49L303.51-6.49L303.51-6.49Q303.51-7.99 302.55-9.06L302.55-9.06L302.55-9.06Q301.60-10.14 300.17-11.00L300.17-11.00L300.17-11.00Q298.75-11.86 297.11-12.69L297.11-12.69L297.11-12.69Q295.47-13.52 294.05-14.70L294.05-14.70L294.05-14.70Q290.72-17.39 290.72-21.71L290.72-21.71L290.72-21.71Q290.72-24.50 292.09-26.68L292.09-26.68L292.09-26.68Q293.46-28.86 295.67-30.33L295.67-30.33L295.67-30.33Q300.08-33.32 305.49-33.32L305.49-33.32L305.49-33.32Q310.91-33.32 313.53-31.70L313.53-31.70L313.53-31.70Q316.15-30.09 316.15-27.34L316.15-27.34L316.15-27.34Q316.15-24.94 314.29-23.42L314.29-23.42L314.29-23.42Q312.67-22.15 310.71-22.15L310.71-22.15L310.71-22.15Q308.75-22.15 307.38-22.64ZM340.01-3.36L340.01-3.36L340.01-3.36Q337.95-1.27 335.14-0.15L335.14-0.15L335.14-0.15Q332.32 0.98 329.53 0.98L329.53 0.98L329.53 0.98Q326.73 0.98 325.75 0.49L325.75 0.49L324.23 8.82L314.29 9.80L321.05-24.99L329.04-25.82L328.40-22.44L328.40-22.44Q330.46-25.92 334.72-25.92L334.72-25.92L334.72-25.92Q339.52-25.92 342.07-22.83L342.07-22.83L342.07-22.83Q344.32-20.04 344.32-15.78L344.32-15.78L344.32-15.78Q344.32-11.52 343.20-8.48L343.20-8.48L343.20-8.48Q342.07-5.44 340.01-3.36ZM328.94-17.10L326.34-2.74L326.34-2.74Q327.37-1.86 328.64-1.86L328.64-1.86L328.64-1.86Q329.92-1.86 330.65-2.35L330.65-2.35L330.65-2.35Q331.39-2.84 331.93-3.82L331.93-3.82L331.93-3.82Q333.40-6.47 334.57-14.50L334.57-14.50L334.57-14.50Q334.92-16.86 334.92-19.16L334.92-19.16L334.92-19.16Q334.92-21.46 334.40-22.20L334.40-22.20L334.40-22.20Q333.89-22.93 332.91-22.93L332.91-22.93L332.91-22.93Q329.92-22.93 328.94-17.10L328.94-17.10ZM357.95 0.98L357.95 0.98L357.95 0.98Q347.17 0.98 347.17-9.16L347.17-9.16L347.17-9.16Q347.17-16.37 351.13-21.02L351.13-21.02L351.13-21.02Q355.35-25.97 362.65-25.97L362.65-25.97L362.65-25.97Q367.94-25.97 370.64-23.52L370.64-23.52L370.64-23.52Q373.33-21.07 373.33-15.93L373.33-15.93L373.33-15.93Q373.33-8.09 369.12-3.53L369.12-3.53L369.12-3.53Q365.00 0.98 357.95 0.98ZM359.22-20.34L359.22-20.34L359.22-20.34Q358.63-19.01 358.17-17.03L358.17-17.03L358.17-17.03Q357.70-15.04 357.11-11.91L357.11-11.91L357.11-11.91Q356.52-8.77 356.52-4.90L356.52-4.90L356.52-4.90Q356.52-3.63 356.94-2.79L356.94-2.79L356.94-2.79Q357.36-1.96 358.48-1.96L358.48-1.96L358.48-1.96Q359.61-1.96 360.32-2.50L360.32-2.50L360.32-2.50Q361.03-3.04 361.57-4.31L361.57-4.31L361.57-4.31Q362.55-6.57 363.34-10.76L363.34-10.76L363.34-10.76Q364.12-14.95 364.19-16.76L364.19-16.76L364.19-16.76Q364.27-18.57 364.27-19.92L364.27-19.92L364.27-19.92Q364.27-21.27 363.87-22.15L363.87-22.15L363.87-22.15Q363.48-23.03 362.38-23.03L362.38-23.03L362.38-23.03Q361.28-23.03 360.54-22.34L360.54-22.34L360.54-22.34Q359.81-21.66 359.22-20.34ZM391.56-13.77L391.56-13.77L391.56-13.77Q393.32-16.91 393.32-20.09L393.32-20.09L393.32-20.09Q393.32-22.20 391.80-22.20L391.80-22.20L391.80-22.20Q390.63-22.20 389.40-20.19L389.40-20.19L389.40-20.19Q388.13-18.18 387.74-15.58L387.74-15.58L385.19 0L375.05 0.98L380.04-24.99L388.13-25.97L387.25-21.02L387.25-21.02Q389.65-25.97 395.04-25.97L395.04-25.97L395.04-25.97Q397.88-25.97 399.42-24.50L399.42-24.50L399.42-24.50Q400.97-23.03 400.97-20.02L400.97-20.02L400.97-20.02Q400.97-17.00 398.98-15.09L398.98-15.09L398.98-15.09Q397.00-13.18 393.62-13.18L393.62-13.18L393.62-13.18Q392.15-13.18 391.56-13.77ZM402.54-4.90L402.54-4.90L402.54-4.90Q402.54-6.22 403.22-9.55L403.22-9.55L405.82-22.79L402.93-22.79L403.12-24.26L403.12-24.26Q409.00-26.02 414.69-30.33L414.69-30.33L417.04-30.33L415.86-24.99L419.69-24.99L419.24-22.79L415.47-22.79L412.97-9.55L412.97-9.55Q412.34-6.52 412.34-5.49L412.34-5.49L412.34-5.49Q412.34-3.14 414.39-2.65L414.39-2.65L414.39-2.65Q413.90-0.98 412.14 0L412.14 0L412.14 0Q410.38 0.98 407.88 0.98L407.88 0.98L407.88 0.98Q405.38 0.98 403.96-0.59L403.96-0.59L403.96-0.59Q402.54-2.16 402.54-4.90ZM434.09-17.20L434.09-17.20L434.09-17.20Q434.78-19.01 434.78-20.58L434.78-20.58L434.78-20.58Q434.78-23.47 432.43-23.47L432.43-23.47L432.43-23.47Q431.20-23.47 430.20-22.37L430.20-22.37L430.20-22.37Q429.19-21.27 429.19-19.89L429.19-19.89L429.19-19.89Q429.19-18.91 429.98-18.13L429.98-18.13L429.98-18.13Q431.10-17.05 433.99-15.29L433.99-15.29L433.99-15.29Q436.88-13.52 437.99-12.08L437.99-12.08L437.99-12.08Q439.09-10.63 439.09-8.65L439.09-8.65L439.09-8.65Q439.09-6.66 438.13-4.85L438.13-4.85L438.13-4.85Q437.18-3.04 435.46-1.76L435.46-1.76L435.46-1.76Q431.79 0.98 425.91 0.98L425.91 0.98L425.91 0.98Q422.72 0.98 420.27-0.69L420.27-0.69L420.27-0.69Q417.82-2.30 417.82-4.21L417.82-4.21L417.82-4.21Q417.82-6.13 419.22-7.25L419.22-7.25L419.22-7.25Q420.62-8.38 422.67-8.38L422.67-8.38L422.67-8.38Q424.73-8.38 426.01-7.60L426.01-7.60L426.01-7.60Q425.37-5.98 425.37-4.90L425.37-4.90L425.37-4.90Q425.37-1.67 428.11-1.67L428.11-1.67L428.11-1.67Q429.29-1.67 430.07-2.40L430.07-2.40L430.07-2.40Q430.86-3.14 430.86-4.41L430.86-4.41L430.86-4.41Q430.86-6.91 426.64-9.55L426.64-9.55L426.64-9.55Q423.21-11.81 422.43-12.69L422.43-12.69L422.43-12.69Q421.11-14.26 421.11-16.22L421.11-16.22L421.11-16.22Q421.11-18.18 422.04-20.04L422.04-20.04L422.04-20.04Q422.97-21.90 424.68-23.23L424.68-23.23L424.68-23.23Q428.26-25.97 434.48-25.97L434.48-25.97L434.48-25.97Q437.67-25.97 439.55-24.70L439.55-24.70L439.55-24.70Q441.44-23.42 441.44-21.27L441.44-21.27L441.44-21.27Q441.44-19.11 440.14-17.89L440.14-17.89L440.14-17.89Q438.84-16.66 436.49-16.66L436.49-16.66L436.49-16.66Q434.88-16.66 434.09-17.20ZM442.76-0.24L442.76-0.24L448.94-32.34L448.94-32.34Q454.72-32.83 458.44-32.83L458.44-32.83L458.44-32.83Q462.17-32.83 464.57-32.51L464.57-32.51L464.57-32.51Q466.97-32.19 468.59-31.36L468.59-31.36L468.59-31.36Q471.82-29.79 471.82-25.48L471.82-25.48L471.82-25.48Q471.82-22.98 469.67-20.87L469.67-20.87L469.67-20.87Q467.66-18.96 465.45-18.52L465.45-18.52L465.45-18.52Q467.80-18.13 469.47-16.37L469.47-16.37L469.47-16.37Q471.23-14.50 471.23-11.61L471.23-11.61L471.23-11.61Q471.23-6.03 467.07-2.77L467.07-2.77L467.07-2.77Q462.90 0.49 454.72 0.49L454.72 0.49L454.72 0.49Q449.09 0.49 442.76-0.24ZM456.09-15.78L453.64-3.09L453.64-3.09Q454.08-3.04 454.18-3.04L454.18-3.04L454.62-3.04L454.62-3.04Q458.64-3.04 460.36-5.68L460.36-5.68L460.36-5.68Q461.63-7.74 461.63-11.52L461.63-11.52L461.63-11.52Q461.63-13.52 460.33-14.60L460.33-14.60L460.33-14.60Q459.03-15.68 456.09-15.78L456.09-15.78ZM463.54-25.43L463.54-25.43L463.54-25.43Q463.54-29.50 459.62-29.50L459.62-29.50L459.18-29.50L459.18-29.50Q458.98-29.50 458.69-29.45L458.69-29.45L456.73-19.11L457.22-19.11L457.22-19.11Q463.54-19.26 463.54-25.43ZM485.15 0.98L485.15 0.98L485.15 0.98Q474.37 0.98 474.37-9.16L474.37-9.16L474.37-9.16Q474.37-16.37 478.34-21.02L478.34-21.02L478.34-21.02Q482.55-25.97 489.85-25.97L489.85-25.97L489.85-25.97Q495.15-25.97 497.84-23.52L497.84-23.52L497.84-23.52Q500.54-21.07 500.54-15.93L500.54-15.93L500.54-15.93Q500.54-8.09 496.32-3.53L496.32-3.53L496.32-3.53Q492.21 0.98 485.15 0.98ZM486.42-20.34L486.42-20.34L486.42-20.34Q485.84-19.01 485.37-17.03L485.37-17.03L485.37-17.03Q484.90-15.04 484.32-11.91L484.32-11.91L484.32-11.91Q483.73-8.77 483.73-4.90L483.73-4.90L483.73-4.90Q483.73-3.63 484.14-2.79L484.14-2.79L484.14-2.79Q484.56-1.96 485.69-1.96L485.69-1.96L485.69-1.96Q486.82-1.96 487.53-2.50L487.53-2.50L487.53-2.50Q488.24-3.04 488.78-4.31L488.78-4.31L488.78-4.31Q489.76-6.57 490.54-10.76L490.54-10.76L490.54-10.76Q491.32-14.95 491.40-16.76L491.40-16.76L491.40-16.76Q491.47-18.57 491.47-19.92L491.47-19.92L491.47-19.92Q491.47-21.27 491.08-22.15L491.08-22.15L491.08-22.15Q490.69-23.03 489.58-23.03L489.58-23.03L489.58-23.03Q488.48-23.03 487.75-22.34L487.75-22.34L487.75-22.34Q487.01-21.66 486.42-20.34ZM515.14-2.70L515.14-2.70L515.14-2.70Q513.62 0.98 508.77 0.98L508.77 0.98L508.77 0.98Q506.32 0.98 504.75-0.73L504.75-0.73L504.75-0.73Q503.48-2.16 503.48-3.77L503.48-3.77L503.48-3.77Q503.48-7.45 505.19-15.48L505.19-15.48L508.77-34.30L518.71-35.28L513.96-10.49L513.96-10.49Q513.13-6.86 513.13-5.59L513.13-5.59L513.13-5.59Q513.13-2.79 515.14-2.70ZM531.21-7.94L531.21-7.94L531.21-7.94Q529.64-9.06 529.64-11.22L529.64-11.22L529.64-11.22Q529.64-12.40 530.23-13.35L530.23-13.35L530.23-13.35Q530.82-14.31 531.99-14.46L531.99-14.46L541.65-14.46L541.65-14.46Q543.26-14.46 543.75-15.44L543.75-15.44L543.75-15.44Q544.54-14.99 544.88-14.06L544.88-14.06L544.88-14.06Q545.22-13.13 545.22-12.15L545.22-12.15L545.22-12.15Q545.22-11.17 544.46-10.22L544.46-10.22L544.46-10.22Q543.70-9.26 542.58-9.16L542.58-9.16L533.61-9.16L533.61-9.16Q532.58-9.16 532.09-8.84L532.09-8.84L532.09-8.84Q531.60-8.53 531.21-7.94ZM562.62-23.86L562.62-23.86L562.62-23.86Q560.95-25.14 560.95-27.86L560.95-27.86L560.95-27.86Q560.95-30.58 562.74-32.00L562.74-32.00L562.74-32.00Q564.53-33.42 567.62-33.42L567.62-33.42L567.62-33.42Q569.58-33.42 574.23-32.73L574.23-32.73L577.56-32.24L577.56-32.24Q579.23-32.05 580.97-32.05L580.97-32.05L580.97-32.05Q582.71-32.05 583.88-32.78L583.88-32.78L583.88-32.78Q585.65-31.21 585.65-28.96L585.65-28.96L585.65-28.96Q585.65-26.71 583.64-25.09L583.64-25.09L583.64-25.09Q581.58-23.37 578.94-23.37L578.94-23.37L578.94-23.37Q577.66-23.37 575.60-23.72L575.60-23.72L575.60-23.72Q573.20-16.17 573.20-10.93L573.20-10.93L573.20-10.93Q573.20-5.68 575.85-2.94L575.85-2.94L575.85-2.94Q574.62-0.73 572.81 0.12L572.81 0.12L572.81 0.12Q571.00 0.98 568.28 0.98L568.28 0.98L568.28 0.98Q565.56 0.98 563.87-0.51L563.87-0.51L563.87-0.51Q562.18-2.01 562.18-5.10L562.18-5.10L562.18-5.10Q562.18-8.67 564.14-14.55L564.14-14.55L564.14-14.55Q566.10-20.38 569.04-24.84L569.04-24.84L569.04-24.84Q567.62-24.99 566.15-24.99L566.15-24.99L566.15-24.99Q563.11-24.99 562.62-23.86ZM608.73-5.44L608.73-5.44L608.73-5.44Q608.73-3.28 610.93-2.65L610.93-2.65L610.93-2.65Q610.39-0.83 608.29 0.15L608.29 0.15L608.29 0.15Q606.52 0.98 604.59 0.98L604.59 0.98L604.59 0.98Q602.65 0.98 601.65 0.47L601.65 0.47L601.65 0.47Q600.64-0.05 600.10-0.88L600.10-0.88L600.10-0.88Q599.22-2.16 599.22-4.56L599.22-4.56L599.22-4.56Q599.22-5.98 600.01-9.90L600.01-9.90L600.69-13.62L600.69-13.62Q601.52-17.89 601.52-19.45L601.52-19.45L601.52-19.45Q601.52-22.20 600.01-22.20L600.01-22.20L600.01-22.20Q598.09-22.20 596.87-19.40L596.87-19.40L596.87-19.40Q596.38-18.33 596.04-16.71L596.04-16.71L592.70 0L582.86 0.98L589.76-34.30L599.61-35.28L599.22-33.32L599.22-33.32Q597.85-25.77 596.67-23.23L596.67-23.23L596.67-23.23Q599.42-25.97 604.46-25.97L604.46-25.97L604.46-25.97Q609.81-25.97 610.79-22.44L610.79-22.44L610.79-22.44Q611.13-21.32 611.13-20.34L611.13-20.34L611.13-20.34Q611.13-19.36 611.05-18.60L611.05-18.60L611.05-18.60Q610.98-17.84 610.74-16.46L610.74-16.46L610.10-12.94L608.97-7.40L608.97-7.40Q608.73-6.27 608.73-5.44ZM634.75-8.28L634.75-8.28L634.75-8.28Q635.97-7.45 635.97-5.61L635.97-5.61L635.97-5.61Q635.97-3.77 635.04-2.60L635.04-2.60L635.04-2.60Q634.11-1.42 632.59-0.64L632.59-0.64L632.59-0.64Q629.45 0.98 626.07 0.98L626.07 0.98L626.07 0.98Q622.69 0.98 620.71 0.24L620.71 0.24L620.71 0.24Q618.72-0.49 617.40-1.86L617.40-1.86L617.40-1.86Q614.80-4.46 614.80-9.21L614.80-9.21L614.80-9.21Q614.80-16.61 618.82-21.12L618.82-21.12L618.82-21.12Q623.13-25.97 630.63-25.97L630.63-25.97L630.63-25.97Q635.29-25.97 637.59-24.01L637.59-24.01L637.59-24.01Q639.30-22.54 639.30-20.14L639.30-20.14L639.30-20.14Q639.30-11.52 624.41-11.52L624.41-11.52L624.41-11.52Q624.21-10.24 624.21-9.16L624.21-9.16L624.21-9.16Q624.21-6.91 625.22-6.05L625.22-6.05L625.22-6.05Q626.22-5.19 628.08-5.19L628.08-5.19L628.08-5.19Q629.94-5.19 631.93-6.05L631.93-6.05L631.93-6.05Q633.91-6.91 634.75-8.28ZM624.75-13.62L624.75-13.62L624.75-13.62Q628.23-13.62 630.24-15.78L630.24-15.78L630.24-15.78Q632.25-17.84 632.25-21.12L632.25-21.12L632.25-21.12Q632.25-22.25 631.83-22.86L631.83-22.86L631.83-22.86Q631.41-23.47 630.58-23.47L630.58-23.47L630.58-23.47Q629.75-23.47 629.04-23.15L629.04-23.15L629.04-23.15Q628.33-22.83 627.59-21.76L627.59-21.76L627.59-21.76Q625.78-19.31 624.75-13.62ZM671.79 0.98L671.79 0.98L671.79 0.98Q665.86 0.98 665.86-3.63L665.86-3.63L665.86-3.63Q665.91-4.90 666.30-7.06L666.30-7.06L667.18-11.56L667.18-11.56Q668.51-17.93 668.51-19.36L668.51-19.36L668.51-19.36Q668.51-22.20 666.84-22.20L666.84-22.20L666.84-22.20Q664.05-22.20 662.58-14.90L662.58-14.90L659.69 0L649.84 0.98L654.93-25.04L662.97-25.97L662.19-21.17L662.19-21.17Q664.49-25.97 671.55-25.97L671.55-25.97L671.55-25.97Q674.98-25.97 676.42-24.52L676.42-24.52L676.42-24.52Q677.87-23.08 677.87-19.85L677.87-19.85L677.87-19.85Q677.87-16.81 676.30-9.70L676.30-9.70L676.30-9.70Q675.56-6.52 675.56-5.32L675.56-5.32L675.56-5.32Q675.56-4.12 676.22-3.43L676.22-3.43L676.22-3.43Q676.89-2.74 677.87-2.65L677.87-2.65L677.87-2.65Q677.38-0.98 675.69 0L675.69 0L675.69 0Q674.00 0.98 671.79 0.98ZM701.63-8.28L701.63-8.28L701.63-8.28Q702.86-7.45 702.86-5.61L702.86-5.61L702.86-5.61Q702.86-3.77 701.93-2.60L701.93-2.60L701.93-2.60Q700.99-1.42 699.48-0.64L699.48-0.64L699.48-0.64Q696.34 0.98 692.96 0.98L692.96 0.98L692.96 0.98Q689.58 0.98 687.59 0.24L687.59 0.24L687.59 0.24Q685.61-0.49 684.29-1.86L684.29-1.86L684.29-1.86Q681.69-4.46 681.69-9.21L681.69-9.21L681.69-9.21Q681.69-16.61 685.71-21.12L685.71-21.12L685.71-21.12Q690.02-25.97 697.52-25.97L697.52-25.97L697.52-25.97Q702.17-25.97 704.47-24.01L704.47-24.01L704.47-24.01Q706.19-22.54 706.19-20.14L706.19-20.14L706.19-20.14Q706.19-11.52 691.29-11.52L691.29-11.52L691.29-11.52Q691.10-10.24 691.10-9.16L691.10-9.16L691.10-9.16Q691.10-6.91 692.10-6.05L692.10-6.05L692.10-6.05Q693.11-5.19 694.97-5.19L694.97-5.19L694.97-5.19Q696.83-5.19 698.81-6.05L698.81-6.05L698.81-6.05Q700.80-6.91 701.63-8.28ZM691.64-13.62L691.64-13.62L691.64-13.62Q695.11-13.62 697.12-15.78L697.12-15.78L697.12-15.78Q699.13-17.84 699.13-21.12L699.13-21.12L699.13-21.12Q699.13-22.25 698.72-22.86L698.72-22.86L698.72-22.86Q698.30-23.47 697.47-23.47L697.47-23.47L697.47-23.47Q696.63-23.47 695.92-23.15L695.92-23.15L695.92-23.15Q695.21-22.83 694.48-21.76L694.48-21.76L694.48-21.76Q692.66-19.31 691.64-13.62ZM714.37 0.15L714.37 0.15L714.37 0.15Q712.80 0.98 710.65 0.98L710.65 0.98L710.65 0.98Q708.49 0.98 707.32-0.12L707.32-0.12L707.32-0.12Q706.14-1.23 706.14-3.36L706.14-3.36L706.14-3.36Q706.14-5.49 707.63-7.57L707.63-7.57L707.63-7.57Q709.13-9.65 711.36-10.83L711.36-10.83L711.36-10.83Q713.59-12.01 715.16-12.69L715.16-12.69L712.07-19.80L712.07-19.80Q711.24-21.61 709.67-21.61L709.67-21.61L709.28-21.56L709.13-21.56L709.13-21.56Q709.42-23.28 711.43-24.60L711.43-24.60L711.43-24.60Q713.44-25.97 715.74-25.97L715.74-25.97L715.74-25.97Q719.47-25.97 721.18-22.25L721.18-22.25L721.57-21.46L723.68-16.27L723.68-16.27Q725.00-16.86 725.57-17.96L725.57-17.96L725.57-17.96Q726.13-19.06 726.13-21.24L726.13-21.24L726.13-21.24Q726.13-23.42 724.96-24.79L724.96-24.79L724.96-24.79Q726.82-25.97 729.27-25.97L729.27-25.97L729.27-25.97Q733.68-25.97 733.68-21.71L733.68-21.71L733.68-21.71Q733.68-17.05 727.85-14.36L727.85-14.36L724.91-12.99L727.55-6.17L727.55-6.17Q728.34-4.12 729.76-3.23L729.76-3.23L729.76-3.23Q730.35-2.84 731.03-2.79L731.03-2.79L731.03-2.79Q729.56-0.39 726.38 0.69L726.38 0.69L726.38 0.69Q725.40 0.98 724.07 0.98L724.07 0.98L724.07 0.98Q722.75 0.98 721.23 0.07L721.23 0.07L721.23 0.07Q719.71-0.83 719.17-2.25L719.17-2.25L716.48-9.26L716.48-9.26Q713.73-8.04 713.73-3.58L713.73-3.58L713.73-3.58Q713.73-1.52 714.37 0.15ZM735.78-4.90L735.78-4.90L735.78-4.90Q735.78-6.22 736.47-9.55L736.47-9.55L739.07-22.79L736.18-22.79L736.37-24.26L736.37-24.26Q742.25-26.02 747.94-30.33L747.94-30.33L750.29-30.33L749.11-24.99L752.93-24.99L752.49-22.79L748.72-22.79L746.22-9.55L746.22-9.55Q745.58-6.52 745.58-5.49L745.58-5.49L745.58-5.49Q745.58-3.14 747.64-2.65L747.64-2.65L747.64-2.65Q747.15-0.98 745.39 0L745.39 0L745.39 0Q743.62 0.98 741.13 0.98L741.13 0.98L741.13 0.98Q738.63 0.98 737.21-0.59L737.21-0.59L737.21-0.59Q735.78-2.16 735.78-4.90ZM777.43-17.20L777.43-17.20L777.43-17.20Q778.12-19.01 778.12-20.58L778.12-20.58L778.12-20.58Q778.12-23.47 775.77-23.47L775.77-23.47L775.77-23.47Q774.54-23.47 773.54-22.37L773.54-22.37L773.54-22.37Q772.53-21.27 772.53-19.89L772.53-19.89L772.53-19.89Q772.53-18.91 773.32-18.13L773.32-18.13L773.32-18.13Q774.45-17.05 777.34-15.29L777.34-15.29L777.34-15.29Q780.23-13.52 781.33-12.08L781.33-12.08L781.33-12.08Q782.43-10.63 782.43-8.65L782.43-8.65L782.43-8.65Q782.43-6.66 781.48-4.85L781.48-4.85L781.48-4.85Q780.52-3.04 778.81-1.76L778.81-1.76L778.81-1.76Q775.13 0.98 769.25 0.98L769.25 0.98L769.25 0.98Q766.07 0.98 763.62-0.69L763.62-0.69L763.62-0.69Q761.17-2.30 761.17-4.21L761.17-4.21L761.17-4.21Q761.17-6.13 762.56-7.25L762.56-7.25L762.56-7.25Q763.96-8.38 766.02-8.38L766.02-8.38L766.02-8.38Q768.08-8.38 769.35-7.60L769.35-7.60L769.35-7.60Q768.71-5.98 768.71-4.90L768.71-4.90L768.71-4.90Q768.71-1.67 771.46-1.67L771.46-1.67L771.46-1.67Q772.63-1.67 773.42-2.40L773.42-2.40L773.42-2.40Q774.20-3.14 774.20-4.41L774.20-4.41L774.20-4.41Q774.20-6.91 769.99-9.55L769.99-9.55L769.99-9.55Q766.56-11.81 765.77-12.69L765.77-12.69L765.77-12.69Q764.45-14.26 764.45-16.22L764.45-16.22L764.45-16.22Q764.45-18.18 765.38-20.04L765.38-20.04L765.38-20.04Q766.31-21.90 768.03-23.23L768.03-23.23L768.03-23.23Q771.60-25.97 777.83-25.97L777.83-25.97L777.83-25.97Q781.01-25.97 782.90-24.70L782.90-24.70L782.90-24.70Q784.78-23.42 784.78-21.27L784.78-21.27L784.78-21.27Q784.78-19.11 783.49-17.89L783.49-17.89L783.49-17.89Q782.19-16.66 779.84-16.66L779.84-16.66L779.84-16.66Q778.22-16.66 777.43-17.20ZM809.43-3.36L809.43-3.36L809.43-3.36Q807.37-1.27 804.56-0.15L804.56-0.15L804.56-0.15Q801.74 0.98 798.95 0.98L798.95 0.98L798.95 0.98Q796.15 0.98 795.17 0.49L795.17 0.49L793.65 8.82L783.71 9.80L790.47-24.99L798.46-25.82L797.82-22.44L797.82-22.44Q799.88-25.92 804.14-25.92L804.14-25.92L804.14-25.92Q808.94-25.92 811.49-22.83L811.49-22.83L811.49-22.83Q813.74-20.04 813.74-15.78L813.74-15.78L813.74-15.78Q813.74-11.52 812.62-8.48L812.62-8.48L812.62-8.48Q811.49-5.44 809.43-3.36ZM798.36-17.10L795.76-2.74L795.76-2.74Q796.79-1.86 798.06-1.86L798.06-1.86L798.06-1.86Q799.34-1.86 800.07-2.35L800.07-2.35L800.07-2.35Q800.81-2.84 801.35-3.82L801.35-3.82L801.35-3.82Q802.82-6.47 803.99-14.50L803.99-14.50L803.99-14.50Q804.34-16.86 804.34-19.16L804.34-19.16L804.34-19.16Q804.34-21.46 803.82-22.20L803.82-22.20L803.82-22.20Q803.31-22.93 802.33-22.93L802.33-22.93L802.33-22.93Q799.34-22.93 798.36-17.10L798.36-17.10ZM827.37 0.98L827.37 0.98L827.37 0.98Q816.59 0.98 816.59-9.16L816.59-9.16L816.59-9.16Q816.59-16.37 820.55-21.02L820.55-21.02L820.55-21.02Q824.77-25.97 832.07-25.97L832.07-25.97L832.07-25.97Q837.36-25.97 840.06-23.52L840.06-23.52L840.06-23.52Q842.75-21.07 842.75-15.93L842.75-15.93L842.75-15.93Q842.75-8.09 838.54-3.53L838.54-3.53L838.54-3.53Q834.42 0.98 827.37 0.98ZM828.64-20.34L828.64-20.34L828.64-20.34Q828.05-19.01 827.59-17.03L827.59-17.03L827.59-17.03Q827.12-15.04 826.53-11.91L826.53-11.91L826.53-11.91Q825.94-8.77 825.94-4.90L825.94-4.90L825.94-4.90Q825.94-3.63 826.36-2.79L826.36-2.79L826.36-2.79Q826.78-1.96 827.90-1.96L827.90-1.96L827.90-1.96Q829.03-1.96 829.74-2.50L829.74-2.50L829.74-2.50Q830.45-3.04 830.99-4.31L830.99-4.31L830.99-4.31Q831.97-6.57 832.76-10.76L832.76-10.76L832.76-10.76Q833.54-14.95 833.61-16.76L833.61-16.76L833.61-16.76Q833.69-18.57 833.69-19.92L833.69-19.92L833.69-19.92Q833.69-21.27 833.29-22.15L833.29-22.15L833.29-22.15Q832.90-23.03 831.80-23.03L831.80-23.03L831.80-23.03Q830.70-23.03 829.96-22.34L829.96-22.34L829.96-22.34Q829.23-21.66 828.64-20.34ZM860.98-13.77L860.98-13.77L860.98-13.77Q862.74-16.91 862.74-20.09L862.74-20.09L862.74-20.09Q862.74-22.20 861.22-22.20L861.22-22.20L861.22-22.20Q860.05-22.20 858.82-20.19L858.82-20.19L858.82-20.19Q857.55-18.18 857.16-15.58L857.16-15.58L854.61 0L844.47 0.98L849.46-24.99L857.55-25.97L856.67-21.02L856.67-21.02Q859.07-25.97 864.46-25.97L864.46-25.97L864.46-25.97Q867.30-25.97 868.84-24.50L868.84-24.50L868.84-24.50Q870.39-23.03 870.39-20.02L870.39-20.02L870.39-20.02Q870.39-17.00 868.40-15.09L868.40-15.09L868.40-15.09Q866.42-13.18 863.04-13.18L863.04-13.18L863.04-13.18Q861.57-13.18 860.98-13.77ZM871.96-4.90L871.96-4.90L871.96-4.90Q871.96-6.22 872.64-9.55L872.64-9.55L875.24-22.79L872.35-22.79L872.54-24.26L872.54-24.26Q878.42-26.02 884.11-30.33L884.11-30.33L886.46-30.33L885.28-24.99L889.11-24.99L888.66-22.79L884.89-22.79L882.39-9.55L882.39-9.55Q881.76-6.52 881.76-5.49L881.76-5.49L881.76-5.49Q881.76-3.14 883.81-2.65L883.81-2.65L883.81-2.65Q883.32-0.98 881.56 0L881.56 0L881.56 0Q879.80 0.98 877.30 0.98L877.30 0.98L877.30 0.98Q874.80 0.98 873.38-0.59L873.38-0.59L873.38-0.59Q871.96-2.16 871.96-4.90ZM900.62-2.70L900.62-2.70L900.62-2.70Q899.10 0.98 894.25 0.98L894.25 0.98L894.25 0.98Q891.75 0.98 890.18-0.73L890.18-0.73L890.18-0.73Q888.86-2.25 888.86-3.77L888.86-3.77L888.86-3.77Q888.86-7.74 890.67-15.48L890.67-15.48L892.49-24.99L902.43-25.97L899.44-10.49L899.44-10.49Q898.61-6.86 898.61-5.59L898.61-5.59L898.61-5.59Q898.61-2.79 900.62-2.70ZM893.37-31.80L893.37-31.80L893.37-31.80Q893.37-33.71 894.96-34.74L894.96-34.74L894.96-34.74Q896.55-35.77 898.86-35.77L898.86-35.77L898.86-35.77Q901.16-35.77 902.56-34.74L902.56-34.74L902.56-34.74Q903.95-33.71 903.95-31.80L903.95-31.80L903.95-31.80Q903.95-29.89 902.41-28.91L902.41-28.91L902.41-28.91Q900.87-27.93 898.56-27.93L898.56-27.93L898.56-27.93Q896.26-27.93 894.81-28.91L894.81-28.91L894.81-28.91Q893.37-29.89 893.37-31.80ZM925.51 0.98L925.51 0.98L925.51 0.98Q919.58 0.98 919.58-3.63L919.58-3.63L919.58-3.63Q919.63-4.90 920.02-7.06L920.02-7.06L920.91-11.56L920.91-11.56Q922.23-17.93 922.23-19.36L922.23-19.36L922.23-19.36Q922.23-22.20 920.56-22.20L920.56-22.20L920.56-22.20Q917.77-22.20 916.30-14.90L916.30-14.90L913.41 0L903.56 0.98L908.66-25.04L916.69-25.97L915.91-21.17L915.91-21.17Q918.21-25.97 925.27-25.97L925.27-25.97L925.27-25.97Q928.70-25.97 930.14-24.52L930.14-24.52L930.14-24.52Q931.59-23.08 931.59-19.85L931.59-19.85L931.59-19.85Q931.59-16.81 930.02-9.70L930.02-9.70L930.02-9.70Q929.28-6.52 929.28-5.32L929.28-5.32L929.28-5.32Q929.28-4.12 929.95-3.43L929.95-3.43L929.95-3.43Q930.61-2.74 931.59-2.65L931.59-2.65L931.59-2.65Q931.10-0.98 929.41 0L929.41 0L929.41 0Q927.72 0.98 925.51 0.98ZM938.99-20.48L938.99-20.48L938.99-20.48Q940.65-22.83 943.18-24.40L943.18-24.40L943.18-24.40Q945.70-25.97 948.79-25.97L948.79-25.97L948.79-25.97Q951.87-25.97 953.34-24.99L953.34-24.99L962.95-25.97L959.62-7.15L959.62-7.15Q957.90 2.45 954.27 6.22L954.27 6.22L954.27 6.22Q950.80 9.80 944.03 9.80L944.03 9.80L944.03 9.80Q938.89 9.80 935.95 8.18L935.95 8.18L935.95 8.18Q933.01 6.57 933.01 3.87L933.01 3.87L933.01 3.87Q933.01 1.86 934.53 0.71L934.53 0.71L934.53 0.71Q936.05-0.44 938.40-0.44L938.40-0.44L938.40-0.44Q940.46-0.44 942.02 0.49L942.02 0.49L942.02 0.49Q942.96 0.98 943.40 1.67L943.40 1.67L943.40 1.67Q942.27 2.65 942.27 4.26L942.27 4.26L942.27 4.26Q942.27 6.37 944.23 6.37L944.23 6.37L944.23 6.37Q947.51 6.37 949.38-1.37L949.38-1.37L949.38-1.37Q949.91-3.48 950.35-5.59L950.35-5.59L950.35-5.59Q948.15-2.89 943.15-2.89L943.15-2.89L943.15-2.89Q939.67-2.89 937.66-4.56L937.66-4.56L937.66-4.56Q935.65-6.22 935.65-10.14L935.65-10.14L935.65-10.14Q935.65-12.59 936.49-15.36L936.49-15.36L936.49-15.36Q937.32-18.13 938.99-20.48ZM945.36-10.00L945.36-10.00L945.36-10.00Q945.36-6.66 947.07-6.66L947.07-6.66L947.07-6.66Q948.25-6.66 949.38-7.94L949.38-7.94L949.38-7.94Q950.26-8.97 950.60-10.49L950.60-10.49L953.10-23.08L953.10-23.08Q952.85-23.13 952.61-23.23L952.61-23.23L952.61-23.23Q952.12-23.42 951.48-23.42L951.48-23.42L951.48-23.42Q948.49-23.42 946.73-18.52L946.73-18.52L946.73-18.52Q945.36-14.70 945.36-10.00ZM990.29-13.77L990.29-13.77L990.29-13.77Q992.05-16.91 992.05-20.09L992.05-20.09L992.05-20.09Q992.05-22.20 990.53-22.20L990.53-22.20L990.53-22.20Q989.36-22.20 988.13-20.19L988.13-20.19L988.13-20.19Q986.86-18.18 986.47-15.58L986.47-15.58L983.92 0L973.78 0.98L978.77-24.99L986.86-25.97L985.98-21.02L985.98-21.02Q988.38-25.97 993.77-25.97L993.77-25.97L993.77-25.97Q996.61-25.97 998.15-24.50L998.15-24.50L998.15-24.50Q999.70-23.03 999.70-20.02L999.70-20.02L999.70-20.02Q999.70-17.00 997.71-15.09L997.71-15.09L997.71-15.09Q995.73-13.18 992.35-13.18L992.35-13.18L992.35-13.18Q990.88-13.18 990.29-13.77ZM1020.33-8.28L1020.33-8.28L1020.33-8.28Q1021.55-7.45 1021.55-5.61L1021.55-5.61L1021.55-5.61Q1021.55-3.77 1020.62-2.60L1020.62-2.60L1020.62-2.60Q1019.69-1.42 1018.17-0.64L1018.17-0.64L1018.17-0.64Q1015.03 0.98 1011.65 0.98L1011.65 0.98L1011.65 0.98Q1008.27 0.98 1006.29 0.24L1006.29 0.24L1006.29 0.24Q1004.30-0.49 1002.98-1.86L1002.98-1.86L1002.98-1.86Q1000.38-4.46 1000.38-9.21L1000.38-9.21L1000.38-9.21Q1000.38-16.61 1004.40-21.12L1004.40-21.12L1004.40-21.12Q1008.71-25.97 1016.21-25.97L1016.21-25.97L1016.21-25.97Q1020.87-25.97 1023.17-24.01L1023.17-24.01L1023.17-24.01Q1024.88-22.54 1024.88-20.14L1024.88-20.14L1024.88-20.14Q1024.88-11.52 1009.99-11.52L1009.99-11.52L1009.99-11.52Q1009.79-10.24 1009.79-9.16L1009.79-9.16L1009.79-9.16Q1009.79-6.91 1010.80-6.05L1010.80-6.05L1010.80-6.05Q1011.80-5.19 1013.66-5.19L1013.66-5.19L1013.66-5.19Q1015.52-5.19 1017.51-6.05L1017.51-6.05L1017.51-6.05Q1019.49-6.91 1020.33-8.28ZM1010.33-13.62L1010.33-13.62L1010.33-13.62Q1013.81-13.62 1015.82-15.78L1015.82-15.78L1015.82-15.78Q1017.83-17.84 1017.83-21.12L1017.83-21.12L1017.83-21.12Q1017.83-22.25 1017.41-22.86L1017.41-22.86L1017.41-22.86Q1017.00-23.47 1016.16-23.47L1016.16-23.47L1016.16-23.47Q1015.33-23.47 1014.62-23.15L1014.62-23.15L1014.62-23.15Q1013.91-22.83 1013.17-21.76L1013.17-21.76L1013.17-21.76Q1011.36-19.31 1010.33-13.62ZM1044.34-24.16L1044.34-24.16L1044.34-24.16Q1045.95-25.97 1048.75-25.97L1048.75-25.97L1048.75-25.97Q1050.46-25.97 1051.79-25.04L1051.79-25.04L1051.79-25.04Q1053.11-24.11 1053.11-22.37L1053.11-22.37L1053.11-22.37Q1053.11-20.63 1052.57-18.77L1052.57-18.77L1052.57-18.77Q1052.03-16.91 1051.20-14.99L1051.20-14.99L1051.20-14.99Q1049.53-11.27 1047.23-8.18L1047.23-8.18L1047.23-8.18Q1043.99-3.72 1040.88-1.37L1040.88-1.37L1040.88-1.37Q1037.77 0.98 1034.39 0.98L1034.39 0.98L1034.39 0.98Q1031.65 0.98 1029.98 0.34L1029.98 0.34L1029.98 0.34Q1029.69-9.95 1029.32-13.62L1029.32-13.62L1029.32-13.62Q1028.95-17.30 1028.66-19.31L1028.66-19.31L1028.66-19.31Q1028.17-23.23 1026.70-24.16L1026.70-24.16L1026.70-24.16Q1027.82-25.14 1028.93-25.55L1028.93-25.55L1028.93-25.55Q1030.03-25.97 1032.31-25.97L1032.31-25.97L1032.31-25.97Q1034.59-25.97 1036.20-24.18L1036.20-24.18L1036.20-24.18Q1037.82-22.39 1038.14-19.23L1038.14-19.23L1038.14-19.23Q1038.46-16.07 1038.46-12.25L1038.46-12.25L1038.46-12.25Q1038.46-8.43 1038.16-3.82L1038.16-3.82L1038.16-3.82Q1039.68-4.90 1041.30-8.18L1041.30-8.18L1041.30-8.18Q1043.50-12.74 1044.29-18.23L1044.29-18.23L1044.29-18.23Q1044.53-19.89 1044.53-21.66L1044.53-21.66L1044.53-21.66Q1044.53-23.42 1044.34-24.16ZM1065.11 0.98L1065.11 0.98L1065.11 0.98Q1054.33 0.98 1054.33-9.16L1054.33-9.16L1054.33-9.16Q1054.33-16.37 1058.30-21.02L1058.30-21.02L1058.30-21.02Q1062.52-25.97 1069.82-25.97L1069.82-25.97L1069.82-25.97Q1075.11-25.97 1077.80-23.52L1077.80-23.52L1077.80-23.52Q1080.50-21.07 1080.50-15.93L1080.50-15.93L1080.50-15.93Q1080.50-8.09 1076.29-3.53L1076.29-3.53L1076.29-3.53Q1072.17 0.98 1065.11 0.98ZM1066.39-20.34L1066.39-20.34L1066.39-20.34Q1065.80-19.01 1065.33-17.03L1065.33-17.03L1065.33-17.03Q1064.87-15.04 1064.28-11.91L1064.28-11.91L1064.28-11.91Q1063.69-8.77 1063.69-4.90L1063.69-4.90L1063.69-4.90Q1063.69-3.63 1064.11-2.79L1064.11-2.79L1064.11-2.79Q1064.53-1.96 1065.65-1.96L1065.65-1.96L1065.65-1.96Q1066.78-1.96 1067.49-2.50L1067.49-2.50L1067.49-2.50Q1068.20-3.04 1068.74-4.31L1068.74-4.31L1068.74-4.31Q1069.72-6.57 1070.50-10.76L1070.50-10.76L1070.50-10.76Q1071.29-14.95 1071.36-16.76L1071.36-16.76L1071.36-16.76Q1071.43-18.57 1071.43-19.92L1071.43-19.92L1071.43-19.92Q1071.43-21.27 1071.04-22.15L1071.04-22.15L1071.04-22.15Q1070.65-23.03 1069.55-23.03L1069.55-23.03L1069.55-23.03Q1068.45-23.03 1067.71-22.34L1067.71-22.34L1067.71-22.34Q1066.98-21.66 1066.39-20.34ZM1095.10-2.70L1095.10-2.70L1095.10-2.70Q1093.58 0.98 1088.73 0.98L1088.73 0.98L1088.73 0.98Q1086.28 0.98 1084.71-0.73L1084.71-0.73L1084.71-0.73Q1083.44-2.16 1083.44-3.77L1083.44-3.77L1083.44-3.77Q1083.44-7.45 1085.15-15.48L1085.15-15.48L1088.73-34.30L1098.68-35.28L1093.93-10.49L1093.93-10.49Q1093.09-6.86 1093.09-5.59L1093.09-5.59L1093.09-5.59Q1093.09-2.79 1095.10-2.70ZM1115.00-2.06L1115.00-2.06L1115.00-2.06Q1112.64 0.98 1106.81 0.98L1106.81 0.98L1106.81 0.98Q1103.77 0.98 1101.57-0.86L1101.57-0.86L1101.57-0.86Q1099.36-2.70 1099.36-5.34L1099.36-5.34L1099.36-5.34Q1099.36-6.81 1099.51-7.55L1099.51-7.55L1102.79-24.99L1112.74-25.97L1109.16-7.06L1109.16-7.06Q1108.97-5.98 1108.97-5.34L1108.97-5.34L1108.97-5.34Q1108.97-2.50 1110.68-2.50L1110.68-2.50L1110.68-2.50Q1112.59-2.50 1113.97-5.10L1113.97-5.10L1113.97-5.10Q1114.41-5.93 1114.60-7.01L1114.60-7.01L1118.08-24.99L1127.74-25.97L1124.11-6.86L1124.11-6.86Q1123.96-6.13 1123.96-5.34L1123.96-5.34L1123.96-5.34Q1123.96-4.56 1124.40-3.70L1124.40-3.70L1124.40-3.70Q1124.84-2.84 1126.27-2.65L1126.27-2.65L1126.27-2.65Q1125.97-1.47 1124.94-0.69L1124.94-0.69L1124.94-0.69Q1122.79 0.98 1120.46 0.98L1120.46 0.98L1120.46 0.98Q1118.13 0.98 1116.76 0.15L1116.76 0.15L1116.76 0.15Q1115.39-0.69 1115.00-2.06ZM1131.17-4.90L1131.17-4.90L1131.17-4.90Q1131.17-6.22 1131.85-9.55L1131.85-9.55L1134.45-22.79L1131.56-22.79L1131.75-24.26L1131.75-24.26Q1137.63-26.02 1143.32-30.33L1143.32-30.33L1145.67-30.33L1144.49-24.99L1148.32-24.99L1147.87-22.79L1144.10-22.79L1141.60-9.55L1141.60-9.55Q1140.97-6.52 1140.97-5.49L1140.97-5.49L1140.97-5.49Q1140.97-3.14 1143.02-2.65L1143.02-2.65L1143.02-2.65Q1142.53-0.98 1140.77 0L1140.77 0L1140.77 0Q1139.01 0.98 1136.51 0.98L1136.51 0.98L1136.51 0.98Q1134.01 0.98 1132.59-0.59L1132.59-0.59L1132.59-0.59Q1131.17-2.16 1131.17-4.90ZM1159.83-2.70L1159.83-2.70L1159.83-2.70Q1158.31 0.98 1153.46 0.98L1153.46 0.98L1153.46 0.98Q1150.96 0.98 1149.39-0.73L1149.39-0.73L1149.39-0.73Q1148.07-2.25 1148.07-3.77L1148.07-3.77L1148.07-3.77Q1148.07-7.74 1149.88-15.48L1149.88-15.48L1151.70-24.99L1161.64-25.97L1158.65-10.49L1158.65-10.49Q1157.82-6.86 1157.82-5.59L1157.82-5.59L1157.82-5.59Q1157.82-2.79 1159.83-2.70ZM1152.58-31.80L1152.58-31.80L1152.58-31.80Q1152.58-33.71 1154.17-34.74L1154.17-34.74L1154.17-34.74Q1155.76-35.77 1158.07-35.77L1158.07-35.77L1158.07-35.77Q1160.37-35.77 1161.77-34.74L1161.77-34.74L1161.77-34.74Q1163.16-33.71 1163.16-31.80L1163.16-31.80L1163.16-31.80Q1163.16-29.89 1161.62-28.91L1161.62-28.91L1161.62-28.91Q1160.08-27.93 1157.77-27.93L1157.77-27.93L1157.77-27.93Q1155.47-27.93 1154.02-28.91L1154.02-28.91L1154.02-28.91Q1152.58-29.89 1152.58-31.80ZM1174.68 0.98L1174.68 0.98L1174.68 0.98Q1163.90 0.98 1163.90-9.16L1163.90-9.16L1163.90-9.16Q1163.90-16.37 1167.87-21.02L1167.87-21.02L1167.87-21.02Q1172.08-25.97 1179.38-25.97L1179.38-25.97L1179.38-25.97Q1184.67-25.97 1187.37-23.52L1187.37-23.52L1187.37-23.52Q1190.06-21.07 1190.06-15.93L1190.06-15.93L1190.06-15.93Q1190.06-8.09 1185.85-3.53L1185.85-3.53L1185.85-3.53Q1181.73 0.98 1174.68 0.98ZM1175.95-20.34L1175.95-20.34L1175.95-20.34Q1175.36-19.01 1174.90-17.03L1174.90-17.03L1174.90-17.03Q1174.43-15.04 1173.84-11.91L1173.84-11.91L1173.84-11.91Q1173.26-8.77 1173.26-4.90L1173.26-4.90L1173.26-4.90Q1173.26-3.63 1173.67-2.79L1173.67-2.79L1173.67-2.79Q1174.09-1.96 1175.22-1.96L1175.22-1.96L1175.22-1.96Q1176.34-1.96 1177.05-2.50L1177.05-2.50L1177.05-2.50Q1177.76-3.04 1178.30-4.31L1178.30-4.31L1178.30-4.31Q1179.28-6.57 1180.07-10.76L1180.07-10.76L1180.07-10.76Q1180.85-14.95 1180.92-16.76L1180.92-16.76L1180.92-16.76Q1181.00-18.57 1181.00-19.92L1181.00-19.92L1181.00-19.92Q1181.00-21.27 1180.61-22.15L1180.61-22.15L1180.61-22.15Q1180.21-23.03 1179.11-23.03L1179.11-23.03L1179.11-23.03Q1178.01-23.03 1177.27-22.34L1177.27-22.34L1177.27-22.34Q1176.54-21.66 1175.95-20.34ZM1213.68 0.98L1213.68 0.98L1213.68 0.98Q1207.75 0.98 1207.75-3.63L1207.75-3.63L1207.75-3.63Q1207.80-4.90 1208.19-7.06L1208.19-7.06L1209.08-11.56L1209.08-11.56Q1210.40-17.93 1210.40-19.36L1210.40-19.36L1210.40-19.36Q1210.40-22.20 1208.73-22.20L1208.73-22.20L1208.73-22.20Q1205.94-22.20 1204.47-14.90L1204.47-14.90L1201.58 0L1191.73 0.98L1196.83-25.04L1204.86-25.97L1204.08-21.17L1204.08-21.17Q1206.38-25.97 1213.44-25.97L1213.44-25.97L1213.44-25.97Q1216.87-25.97 1218.31-24.52L1218.31-24.52L1218.31-24.52Q1219.76-23.08 1219.76-19.85L1219.76-19.85L1219.76-19.85Q1219.76-16.81 1218.19-9.70L1218.19-9.70L1218.19-9.70Q1217.45-6.52 1217.45-5.32L1217.45-5.32L1217.45-5.32Q1217.45-4.12 1218.12-3.43L1218.12-3.43L1218.12-3.43Q1218.78-2.74 1219.76-2.65L1219.76-2.65L1219.76-2.65Q1219.27-0.98 1217.58 0L1217.58 0L1217.58 0Q1215.89 0.98 1213.68 0.98Z" fill="url(#editing-shadow-gradient1)"></path></g></g></g></g><g><g transform="translate(-610.909975528717, 22.78499984741211)"><path d="M2.06-30.38L2.06-30.38L2.06-30.38Q2.74-31.75 4.24-32.51L4.24-32.51L4.24-32.51Q5.73-33.27 7.79-33.27L7.79-33.27L7.79-33.27Q11.03-33.27 12.96-30.94L12.96-30.94L12.96-30.94Q14.90-28.62 14.90-23.52L14.90-23.52L14.90-6.03L26.12-32.29L31.90-32.29L33.22-7.50L33.08-6.08L44.74-32.29L51.45-32.29L35.77 0L25.33 0L24.35-14.90L17.89 0L6.08 0L4.61-23.52L4.61-23.52Q4.46-26.17 3.75-27.91L3.75-27.91L3.75-27.91Q3.04-29.64 2.06-30.38ZM68.36-8.28L68.36-8.28L68.36-8.28Q69.58-7.45 69.58-5.61L69.58-5.61L69.58-5.61Q69.58-3.77 68.65-2.60L68.65-2.60L68.65-2.60Q67.72-1.42 66.20-0.64L66.20-0.64L66.20-0.64Q63.06 0.98 59.68 0.98L59.68 0.98L59.68 0.98Q56.30 0.98 54.32 0.24L54.32 0.24L54.32 0.24Q52.33-0.49 51.01-1.86L51.01-1.86L51.01-1.86Q48.41-4.46 48.41-9.21L48.41-9.21L48.41-9.21Q48.41-16.61 52.43-21.12L52.43-21.12L52.43-21.12Q56.74-25.97 64.24-25.97L64.24-25.97L64.24-25.97Q68.89-25.97 71.20-24.01L71.20-24.01L71.20-24.01Q72.91-22.54 72.91-20.14L72.91-20.14L72.91-20.14Q72.91-11.52 58.02-11.52L58.02-11.52L58.02-11.52Q57.82-10.24 57.82-9.16L57.82-9.16L57.82-9.16Q57.82-6.91 58.82-6.05L58.82-6.05L58.82-6.05Q59.83-5.19 61.69-5.19L61.69-5.19L61.69-5.19Q63.55-5.19 65.54-6.05L65.54-6.05L65.54-6.05Q67.52-6.91 68.36-8.28ZM58.36-13.62L58.36-13.62L58.36-13.62Q61.84-13.62 63.85-15.78L63.85-15.78L63.85-15.78Q65.86-17.84 65.86-21.12L65.86-21.12L65.86-21.12Q65.86-22.25 65.44-22.86L65.44-22.86L65.44-22.86Q65.02-23.47 64.19-23.47L64.19-23.47L64.19-23.47Q63.36-23.47 62.65-23.15L62.65-23.15L62.65-23.15Q61.94-22.83 61.20-21.76L61.20-21.76L61.20-21.76Q59.39-19.31 58.36-13.62ZM86.29-2.70L86.29-2.70L86.29-2.70Q84.77 0.98 79.92 0.98L79.92 0.98L79.92 0.98Q77.47 0.98 75.90-0.73L75.90-0.73L75.90-0.73Q74.63-2.16 74.63-3.77L74.63-3.77L74.63-3.77Q74.63-7.45 76.34-15.48L76.34-15.48L79.92-34.30L89.87-35.28L85.11-10.49L85.11-10.49Q84.28-6.86 84.28-5.59L84.28-5.59L84.28-5.59Q84.28-2.79 86.29-2.70ZM114.51-20.38L114.51-20.38L114.51-20.38Q114.51-18.33 112.80-17.05L112.80-17.05L112.80-17.05Q111.08-15.78 108.29-15.78L108.29-15.78L108.29-15.78Q107.11-15.78 106.43-16.12L106.43-16.12L106.43-16.12Q106.97-17.39 107.14-18.99L107.14-18.99L107.14-18.99Q107.31-20.58 107.31-21.02L107.31-21.02L107.31-21.02Q107.31-23.08 105.89-23.08L105.89-23.08L105.89-23.08Q104.91-23.08 103.81-21.85L103.81-21.85L103.81-21.85Q102.70-20.63 101.77-18.72L101.77-18.72L101.77-18.72Q99.72-14.31 99.72-9.85L99.72-9.85L99.72-9.85Q99.72-7.40 100.65-6.30L100.65-6.30L100.65-6.30Q101.58-5.19 103.64-5.19L103.64-5.19L103.64-5.19Q106.48-5.19 108.73-7.55L108.73-7.55L108.73-7.55Q109.37-8.28 109.71-9.11L109.71-9.11L109.71-9.11Q111.57-8.13 111.57-5.44L111.57-5.44L111.57-5.44Q111.57-2.70 108.54-0.88L108.54-0.88L108.54-0.88Q105.40 0.98 100.40 0.98L100.40 0.98L100.40 0.98Q90.45 0.98 90.45-9.55L90.45-9.55L90.45-9.55Q90.45-17.25 94.82-21.66L94.82-21.66L94.82-21.66Q99.03-25.97 106.77-25.97L106.77-25.97L106.77-25.97Q114.51-25.97 114.51-20.38ZM126.52 0.98L126.52 0.98L126.52 0.98Q115.74 0.98 115.74-9.16L115.74-9.16L115.74-9.16Q115.74-16.37 119.71-21.02L119.71-21.02L119.71-21.02Q123.92-25.97 131.22-25.97L131.22-25.97L131.22-25.97Q136.51-25.97 139.21-23.52L139.21-23.52L139.21-23.52Q141.90-21.07 141.90-15.93L141.90-15.93L141.90-15.93Q141.90-8.09 137.69-3.53L137.69-3.53L137.69-3.53Q133.57 0.98 126.52 0.98ZM127.79-20.34L127.79-20.34L127.79-20.34Q127.20-19.01 126.74-17.03L126.74-17.03L126.74-17.03Q126.27-15.04 125.69-11.91L125.69-11.91L125.69-11.91Q125.10-8.77 125.10-4.90L125.10-4.90L125.10-4.90Q125.10-3.63 125.51-2.79L125.51-2.79L125.51-2.79Q125.93-1.96 127.06-1.96L127.06-1.96L127.06-1.96Q128.18-1.96 128.89-2.50L128.89-2.50L128.89-2.50Q129.61-3.04 130.14-4.31L130.14-4.31L130.14-4.31Q131.12-6.57 131.91-10.76L131.91-10.76L131.91-10.76Q132.69-14.95 132.77-16.76L132.77-16.76L132.77-16.76Q132.84-18.57 132.84-19.92L132.84-19.92L132.84-19.92Q132.84-21.27 132.45-22.15L132.45-22.15L132.45-22.15Q132.06-23.03 130.95-23.03L130.95-23.03L130.95-23.03Q129.85-23.03 129.12-22.34L129.12-22.34L129.12-22.34Q128.38-21.66 127.79-20.34ZM180.08 0.98L180.08 0.98L180.08 0.98Q174.15 0.98 174.15-3.63L174.15-3.63L174.15-3.63Q174.15-5.63 175.00-9.53L175.00-9.53L175.00-9.53Q175.86-13.43 176.16-14.99L176.16-14.99L176.16-14.99Q176.84-18.57 176.84-19.70L176.84-19.70L176.84-19.70Q176.84-22.20 174.98-22.20L174.98-22.20L174.98-22.20Q173.75-22.20 172.58-20.51L172.58-20.51L172.58-20.51Q171.40-18.82 170.86-15.44L170.86-15.44L167.83 0L158.27 0.98L160.92-12.35L160.92-12.35Q161.36-14.55 161.75-17.05L161.75-17.05L161.75-17.05Q162.14-19.55 162.14-19.94L162.14-19.94L162.14-19.94Q162.14-22.20 160.48-22.20L160.48-22.20L160.48-22.20Q159.35-22.20 158.12-20.53L158.12-20.53L158.12-20.53Q156.90-18.87 156.21-15.44L156.21-15.44L153.22 0L143.57 0.98L148.72-24.99L156.70-25.97L155.87-21.02L155.87-21.02Q157.14-23.67 159.50-24.82L159.50-24.82L159.50-24.82Q161.85-25.97 165.52-25.97L165.52-25.97L165.52-25.97Q167.63-25.97 169.00-24.94L169.00-24.94L169.00-24.94Q170.37-23.91 170.81-22.25L170.81-22.25L170.81-22.25Q171.65-23.96 173.78-24.97L173.78-24.97L173.78-24.97Q175.91-25.97 178.53-25.97L178.53-25.97L178.53-25.97Q181.15-25.97 182.45-25.41L182.45-25.41L182.45-25.41Q183.75-24.84 184.53-23.91L184.53-23.91L184.53-23.91Q185.86-22.20 185.86-19.06L185.86-19.06L185.86-19.06Q185.86-15.97 184.53-9.55L184.53-9.55L184.53-9.55Q183.85-6.42 183.85-5.27L183.85-5.27L183.85-5.27Q183.85-4.12 184.51-3.43L184.51-3.43L184.51-3.43Q185.17-2.74 186.15-2.65L186.15-2.65L186.15-2.65Q185.66-0.98 183.97 0L183.97 0L183.97 0Q182.28 0.98 180.08 0.98ZM209.77-8.28L209.77-8.28L209.77-8.28Q210.99-7.45 210.99-5.61L210.99-5.61L210.99-5.61Q210.99-3.77 210.06-2.60L210.06-2.60L210.06-2.60Q209.13-1.42 207.61-0.64L207.61-0.64L207.61-0.64Q204.48 0.98 201.10 0.98L201.10 0.98L201.10 0.98Q197.72 0.98 195.73 0.24L195.73 0.24L195.73 0.24Q193.75-0.49 192.42-1.86L192.42-1.86L192.42-1.86Q189.83-4.46 189.83-9.21L189.83-9.21L189.83-9.21Q189.83-16.61 193.84-21.12L193.84-21.12L193.84-21.12Q198.16-25.97 205.65-25.97L205.65-25.97L205.65-25.97Q210.31-25.97 212.61-24.01L212.61-24.01L212.61-24.01Q214.33-22.54 214.33-20.14L214.33-20.14L214.33-20.14Q214.33-11.52 199.43-11.52L199.43-11.52L199.43-11.52Q199.23-10.24 199.23-9.16L199.23-9.16L199.23-9.16Q199.23-6.91 200.24-6.05L200.24-6.05L200.24-6.05Q201.24-5.19 203.11-5.19L203.11-5.19L203.11-5.19Q204.97-5.19 206.95-6.05L206.95-6.05L206.95-6.05Q208.94-6.91 209.77-8.28ZM199.77-13.62L199.77-13.62L199.77-13.62Q203.25-13.62 205.26-15.78L205.26-15.78L205.26-15.78Q207.27-17.84 207.27-21.12L207.27-21.12L207.27-21.12Q207.27-22.25 206.85-22.86L206.85-22.86L206.85-22.86Q206.44-23.47 205.60-23.47L205.60-23.47L205.60-23.47Q204.77-23.47 204.06-23.15L204.06-23.15L204.06-23.15Q203.35-22.83 202.62-21.76L202.62-21.76L202.62-21.76Q200.80-19.31 199.77-13.62ZM230.01-23.86L230.01-23.86L230.01-23.86Q228.34-25.14 228.34-27.86L228.34-27.86L228.34-27.86Q228.34-30.58 230.13-32.00L230.13-32.00L230.13-32.00Q231.92-33.42 235.00-33.42L235.00-33.42L235.00-33.42Q236.96-33.42 241.62-32.73L241.62-32.73L244.95-32.24L244.95-32.24Q246.62-32.05 248.36-32.05L248.36-32.05L248.36-32.05Q250.10-32.05 251.27-32.78L251.27-32.78L251.27-32.78Q253.04-31.21 253.04-28.96L253.04-28.96L253.04-28.96Q253.04-26.71 251.03-25.09L251.03-25.09L251.03-25.09Q248.97-23.37 246.32-23.37L246.32-23.37L246.32-23.37Q245.05-23.37 242.99-23.72L242.99-23.72L242.99-23.72Q240.59-16.17 240.59-10.93L240.59-10.93L240.59-10.93Q240.59-5.68 243.24-2.94L243.24-2.94L243.24-2.94Q242.01-0.73 240.20 0.12L240.20 0.12L240.20 0.12Q238.39 0.98 235.67 0.98L235.67 0.98L235.67 0.98Q232.95 0.98 231.26-0.51L231.26-0.51L231.26-0.51Q229.57-2.01 229.57-5.10L229.57-5.10L229.57-5.10Q229.57-8.67 231.53-14.55L231.53-14.55L231.53-14.55Q233.49-20.38 236.43-24.84L236.43-24.84L236.43-24.84Q235.00-24.99 233.53-24.99L233.53-24.99L233.53-24.99Q230.50-24.99 230.01-23.86ZM259.90 0.98L259.90 0.98L259.90 0.98Q249.12 0.98 249.12-9.16L249.12-9.16L249.12-9.16Q249.12-16.37 253.09-21.02L253.09-21.02L253.09-21.02Q257.30-25.97 264.60-25.97L264.60-25.97L264.60-25.97Q269.89-25.97 272.59-23.52L272.59-23.52L272.59-23.52Q275.28-21.07 275.28-15.93L275.28-15.93L275.28-15.93Q275.28-8.09 271.07-3.53L271.07-3.53L271.07-3.53Q266.95 0.98 259.90 0.98ZM261.17-20.34L261.17-20.34L261.17-20.34Q260.58-19.01 260.12-17.03L260.12-17.03L260.12-17.03Q259.65-15.04 259.06-11.91L259.06-11.91L259.06-11.91Q258.48-8.77 258.48-4.90L258.48-4.90L258.48-4.90Q258.48-3.63 258.89-2.79L258.89-2.79L258.89-2.79Q259.31-1.96 260.44-1.96L260.44-1.96L260.44-1.96Q261.56-1.96 262.27-2.50L262.27-2.50L262.27-2.50Q262.98-3.04 263.52-4.31L263.52-4.31L263.52-4.31Q264.50-6.57 265.29-10.76L265.29-10.76L265.29-10.76Q266.07-14.95 266.14-16.76L266.14-16.76L266.14-16.76Q266.22-18.57 266.22-19.92L266.22-19.92L266.22-19.92Q266.22-21.27 265.83-22.15L265.83-22.15L265.83-22.15Q265.43-23.03 264.33-23.03L264.33-23.03L264.33-23.03Q263.23-23.03 262.49-22.34L262.49-22.34L262.49-22.34Q261.76-21.66 261.17-20.34ZM307.38-22.64L307.38-22.64L307.38-22.64Q308.11-24.11 308.11-25.48L308.11-25.48L308.11-25.48Q308.11-26.85 307.97-27.61L307.97-27.61L307.97-27.61Q307.82-28.37 307.48-28.96L307.48-28.96L307.48-28.96Q306.74-30.23 305.27-30.23L305.27-30.23L305.27-30.23Q303.46-30.23 301.99-28.91L301.99-28.91L301.99-28.91Q300.42-27.54 300.42-25.38L300.42-25.38L300.42-25.38Q300.42-24.01 301.37-22.96L301.37-22.96L301.37-22.96Q302.33-21.90 303.80-20.92L303.80-20.92L303.80-20.92Q305.27-19.94 306.94-18.96L306.94-18.96L306.94-18.96Q308.60-17.98 310.07-16.81L310.07-16.81L310.07-16.81Q313.45-14.11 313.45-10.49L313.45-10.49L313.45-10.49Q313.45-8.04 312.15-5.95L312.15-5.95L312.15-5.95Q310.86-3.87 308.70-2.35L308.70-2.35L308.70-2.35Q304.00 0.98 297.77 0.98L297.77 0.98L297.77 0.98Q292.73 0.98 290.13-0.66L290.13-0.66L290.13-0.66Q287.53-2.30 287.53-4.80L287.53-4.80L287.53-4.80Q287.53-9.26 291.01-10.39L291.01-10.39L291.01-10.39Q291.99-10.73 293.49-10.73L293.49-10.73L293.49-10.73Q294.98-10.73 296.70-10.09L296.70-10.09L296.70-10.09Q295.91-8.09 295.91-6.27L295.91-6.27L295.91-6.27Q295.91-2.35 298.70-2.35L298.70-2.35L298.70-2.35Q300.52-2.35 302.01-3.68L302.01-3.68L302.01-3.68Q303.51-5.00 303.51-6.49L303.51-6.49L303.51-6.49Q303.51-7.99 302.55-9.06L302.55-9.06L302.55-9.06Q301.60-10.14 300.17-11.00L300.17-11.00L300.17-11.00Q298.75-11.86 297.11-12.69L297.11-12.69L297.11-12.69Q295.47-13.52 294.05-14.70L294.05-14.70L294.05-14.70Q290.72-17.39 290.72-21.71L290.72-21.71L290.72-21.71Q290.72-24.50 292.09-26.68L292.09-26.68L292.09-26.68Q293.46-28.86 295.67-30.33L295.67-30.33L295.67-30.33Q300.08-33.32 305.49-33.32L305.49-33.32L305.49-33.32Q310.91-33.32 313.53-31.70L313.53-31.70L313.53-31.70Q316.15-30.09 316.15-27.34L316.15-27.34L316.15-27.34Q316.15-24.94 314.29-23.42L314.29-23.42L314.29-23.42Q312.67-22.15 310.71-22.15L310.71-22.15L310.71-22.15Q308.75-22.15 307.38-22.64ZM340.01-3.36L340.01-3.36L340.01-3.36Q337.95-1.27 335.14-0.15L335.14-0.15L335.14-0.15Q332.32 0.98 329.53 0.98L329.53 0.98L329.53 0.98Q326.73 0.98 325.75 0.49L325.75 0.49L324.23 8.82L314.29 9.80L321.05-24.99L329.04-25.82L328.40-22.44L328.40-22.44Q330.46-25.92 334.72-25.92L334.72-25.92L334.72-25.92Q339.52-25.92 342.07-22.83L342.07-22.83L342.07-22.83Q344.32-20.04 344.32-15.78L344.32-15.78L344.32-15.78Q344.32-11.52 343.20-8.48L343.20-8.48L343.20-8.48Q342.07-5.44 340.01-3.36ZM328.94-17.10L326.34-2.74L326.34-2.74Q327.37-1.86 328.64-1.86L328.64-1.86L328.64-1.86Q329.92-1.86 330.65-2.35L330.65-2.35L330.65-2.35Q331.39-2.84 331.93-3.82L331.93-3.82L331.93-3.82Q333.40-6.47 334.57-14.50L334.57-14.50L334.57-14.50Q334.92-16.86 334.92-19.16L334.92-19.16L334.92-19.16Q334.92-21.46 334.40-22.20L334.40-22.20L334.40-22.20Q333.89-22.93 332.91-22.93L332.91-22.93L332.91-22.93Q329.92-22.93 328.94-17.10L328.94-17.10ZM357.95 0.98L357.95 0.98L357.95 0.98Q347.17 0.98 347.17-9.16L347.17-9.16L347.17-9.16Q347.17-16.37 351.13-21.02L351.13-21.02L351.13-21.02Q355.35-25.97 362.65-25.97L362.65-25.97L362.65-25.97Q367.94-25.97 370.64-23.52L370.64-23.52L370.64-23.52Q373.33-21.07 373.33-15.93L373.33-15.93L373.33-15.93Q373.33-8.09 369.12-3.53L369.12-3.53L369.12-3.53Q365.00 0.98 357.95 0.98ZM359.22-20.34L359.22-20.34L359.22-20.34Q358.63-19.01 358.17-17.03L358.17-17.03L358.17-17.03Q357.70-15.04 357.11-11.91L357.11-11.91L357.11-11.91Q356.52-8.77 356.52-4.90L356.52-4.90L356.52-4.90Q356.52-3.63 356.94-2.79L356.94-2.79L356.94-2.79Q357.36-1.96 358.48-1.96L358.48-1.96L358.48-1.96Q359.61-1.96 360.32-2.50L360.32-2.50L360.32-2.50Q361.03-3.04 361.57-4.31L361.57-4.31L361.57-4.31Q362.55-6.57 363.34-10.76L363.34-10.76L363.34-10.76Q364.12-14.95 364.19-16.76L364.19-16.76L364.19-16.76Q364.27-18.57 364.27-19.92L364.27-19.92L364.27-19.92Q364.27-21.27 363.87-22.15L363.87-22.15L363.87-22.15Q363.48-23.03 362.38-23.03L362.38-23.03L362.38-23.03Q361.28-23.03 360.54-22.34L360.54-22.34L360.54-22.34Q359.81-21.66 359.22-20.34ZM391.56-13.77L391.56-13.77L391.56-13.77Q393.32-16.91 393.32-20.09L393.32-20.09L393.32-20.09Q393.32-22.20 391.80-22.20L391.80-22.20L391.80-22.20Q390.63-22.20 389.40-20.19L389.40-20.19L389.40-20.19Q388.13-18.18 387.74-15.58L387.74-15.58L385.19 0L375.05 0.98L380.04-24.99L388.13-25.97L387.25-21.02L387.25-21.02Q389.65-25.97 395.04-25.97L395.04-25.97L395.04-25.97Q397.88-25.97 399.42-24.50L399.42-24.50L399.42-24.50Q400.97-23.03 400.97-20.02L400.97-20.02L400.97-20.02Q400.97-17.00 398.98-15.09L398.98-15.09L398.98-15.09Q397.00-13.18 393.62-13.18L393.62-13.18L393.62-13.18Q392.15-13.18 391.56-13.77ZM402.54-4.90L402.54-4.90L402.54-4.90Q402.54-6.22 403.22-9.55L403.22-9.55L405.82-22.79L402.93-22.79L403.12-24.26L403.12-24.26Q409.00-26.02 414.69-30.33L414.69-30.33L417.04-30.33L415.86-24.99L419.69-24.99L419.24-22.79L415.47-22.79L412.97-9.55L412.97-9.55Q412.34-6.52 412.34-5.49L412.34-5.49L412.34-5.49Q412.34-3.14 414.39-2.65L414.39-2.65L414.39-2.65Q413.90-0.98 412.14 0L412.14 0L412.14 0Q410.38 0.98 407.88 0.98L407.88 0.98L407.88 0.98Q405.38 0.98 403.96-0.59L403.96-0.59L403.96-0.59Q402.54-2.16 402.54-4.90ZM434.09-17.20L434.09-17.20L434.09-17.20Q434.78-19.01 434.78-20.58L434.78-20.58L434.78-20.58Q434.78-23.47 432.43-23.47L432.43-23.47L432.43-23.47Q431.20-23.47 430.20-22.37L430.20-22.37L430.20-22.37Q429.19-21.27 429.19-19.89L429.19-19.89L429.19-19.89Q429.19-18.91 429.98-18.13L429.98-18.13L429.98-18.13Q431.10-17.05 433.99-15.29L433.99-15.29L433.99-15.29Q436.88-13.52 437.99-12.08L437.99-12.08L437.99-12.08Q439.09-10.63 439.09-8.65L439.09-8.65L439.09-8.65Q439.09-6.66 438.13-4.85L438.13-4.85L438.13-4.85Q437.18-3.04 435.46-1.76L435.46-1.76L435.46-1.76Q431.79 0.98 425.91 0.98L425.91 0.98L425.91 0.98Q422.72 0.98 420.27-0.69L420.27-0.69L420.27-0.69Q417.82-2.30 417.82-4.21L417.82-4.21L417.82-4.21Q417.82-6.13 419.22-7.25L419.22-7.25L419.22-7.25Q420.62-8.38 422.67-8.38L422.67-8.38L422.67-8.38Q424.73-8.38 426.01-7.60L426.01-7.60L426.01-7.60Q425.37-5.98 425.37-4.90L425.37-4.90L425.37-4.90Q425.37-1.67 428.11-1.67L428.11-1.67L428.11-1.67Q429.29-1.67 430.07-2.40L430.07-2.40L430.07-2.40Q430.86-3.14 430.86-4.41L430.86-4.41L430.86-4.41Q430.86-6.91 426.64-9.55L426.64-9.55L426.64-9.55Q423.21-11.81 422.43-12.69L422.43-12.69L422.43-12.69Q421.11-14.26 421.11-16.22L421.11-16.22L421.11-16.22Q421.11-18.18 422.04-20.04L422.04-20.04L422.04-20.04Q422.97-21.90 424.68-23.23L424.68-23.23L424.68-23.23Q428.26-25.97 434.48-25.97L434.48-25.97L434.48-25.97Q437.67-25.97 439.55-24.70L439.55-24.70L439.55-24.70Q441.44-23.42 441.44-21.27L441.44-21.27L441.44-21.27Q441.44-19.11 440.14-17.89L440.14-17.89L440.14-17.89Q438.84-16.66 436.49-16.66L436.49-16.66L436.49-16.66Q434.88-16.66 434.09-17.20ZM442.76-0.24L442.76-0.24L448.94-32.34L448.94-32.34Q454.72-32.83 458.44-32.83L458.44-32.83L458.44-32.83Q462.17-32.83 464.57-32.51L464.57-32.51L464.57-32.51Q466.97-32.19 468.59-31.36L468.59-31.36L468.59-31.36Q471.82-29.79 471.82-25.48L471.82-25.48L471.82-25.48Q471.82-22.98 469.67-20.87L469.67-20.87L469.67-20.87Q467.66-18.96 465.45-18.52L465.45-18.52L465.45-18.52Q467.80-18.13 469.47-16.37L469.47-16.37L469.47-16.37Q471.23-14.50 471.23-11.61L471.23-11.61L471.23-11.61Q471.23-6.03 467.07-2.77L467.07-2.77L467.07-2.77Q462.90 0.49 454.72 0.49L454.72 0.49L454.72 0.49Q449.09 0.49 442.76-0.24ZM456.09-15.78L453.64-3.09L453.64-3.09Q454.08-3.04 454.18-3.04L454.18-3.04L454.62-3.04L454.62-3.04Q458.64-3.04 460.36-5.68L460.36-5.68L460.36-5.68Q461.63-7.74 461.63-11.52L461.63-11.52L461.63-11.52Q461.63-13.52 460.33-14.60L460.33-14.60L460.33-14.60Q459.03-15.68 456.09-15.78L456.09-15.78ZM463.54-25.43L463.54-25.43L463.54-25.43Q463.54-29.50 459.62-29.50L459.62-29.50L459.18-29.50L459.18-29.50Q458.98-29.50 458.69-29.45L458.69-29.45L456.73-19.11L457.22-19.11L457.22-19.11Q463.54-19.26 463.54-25.43ZM485.15 0.98L485.15 0.98L485.15 0.98Q474.37 0.98 474.37-9.16L474.37-9.16L474.37-9.16Q474.37-16.37 478.34-21.02L478.34-21.02L478.34-21.02Q482.55-25.97 489.85-25.97L489.85-25.97L489.85-25.97Q495.15-25.97 497.84-23.52L497.84-23.52L497.84-23.52Q500.54-21.07 500.54-15.93L500.54-15.93L500.54-15.93Q500.54-8.09 496.32-3.53L496.32-3.53L496.32-3.53Q492.21 0.98 485.15 0.98ZM486.42-20.34L486.42-20.34L486.42-20.34Q485.84-19.01 485.37-17.03L485.37-17.03L485.37-17.03Q484.90-15.04 484.32-11.91L484.32-11.91L484.32-11.91Q483.73-8.77 483.73-4.90L483.73-4.90L483.73-4.90Q483.73-3.63 484.14-2.79L484.14-2.79L484.14-2.79Q484.56-1.96 485.69-1.96L485.69-1.96L485.69-1.96Q486.82-1.96 487.53-2.50L487.53-2.50L487.53-2.50Q488.24-3.04 488.78-4.31L488.78-4.31L488.78-4.31Q489.76-6.57 490.54-10.76L490.54-10.76L490.54-10.76Q491.32-14.95 491.40-16.76L491.40-16.76L491.40-16.76Q491.47-18.57 491.47-19.92L491.47-19.92L491.47-19.92Q491.47-21.27 491.08-22.15L491.08-22.15L491.08-22.15Q490.69-23.03 489.58-23.03L489.58-23.03L489.58-23.03Q488.48-23.03 487.75-22.34L487.75-22.34L487.75-22.34Q487.01-21.66 486.42-20.34ZM515.14-2.70L515.14-2.70L515.14-2.70Q513.62 0.98 508.77 0.98L508.77 0.98L508.77 0.98Q506.32 0.98 504.75-0.73L504.75-0.73L504.75-0.73Q503.48-2.16 503.48-3.77L503.48-3.77L503.48-3.77Q503.48-7.45 505.19-15.48L505.19-15.48L508.77-34.30L518.71-35.28L513.96-10.49L513.96-10.49Q513.13-6.86 513.13-5.59L513.13-5.59L513.13-5.59Q513.13-2.79 515.14-2.70ZM531.21-7.94L531.21-7.94L531.21-7.94Q529.64-9.06 529.64-11.22L529.64-11.22L529.64-11.22Q529.64-12.40 530.23-13.35L530.23-13.35L530.23-13.35Q530.82-14.31 531.99-14.46L531.99-14.46L541.65-14.46L541.65-14.46Q543.26-14.46 543.75-15.44L543.75-15.44L543.75-15.44Q544.54-14.99 544.88-14.06L544.88-14.06L544.88-14.06Q545.22-13.13 545.22-12.15L545.22-12.15L545.22-12.15Q545.22-11.17 544.46-10.22L544.46-10.22L544.46-10.22Q543.70-9.26 542.58-9.16L542.58-9.16L533.61-9.16L533.61-9.16Q532.58-9.16 532.09-8.84L532.09-8.84L532.09-8.84Q531.60-8.53 531.21-7.94ZM562.62-23.86L562.62-23.86L562.62-23.86Q560.95-25.14 560.95-27.86L560.95-27.86L560.95-27.86Q560.95-30.58 562.74-32.00L562.74-32.00L562.74-32.00Q564.53-33.42 567.62-33.42L567.62-33.42L567.62-33.42Q569.58-33.42 574.23-32.73L574.23-32.73L577.56-32.24L577.56-32.24Q579.23-32.05 580.97-32.05L580.97-32.05L580.97-32.05Q582.71-32.05 583.88-32.78L583.88-32.78L583.88-32.78Q585.65-31.21 585.65-28.96L585.65-28.96L585.65-28.96Q585.65-26.71 583.64-25.09L583.64-25.09L583.64-25.09Q581.58-23.37 578.94-23.37L578.94-23.37L578.94-23.37Q577.66-23.37 575.60-23.72L575.60-23.72L575.60-23.72Q573.20-16.17 573.20-10.93L573.20-10.93L573.20-10.93Q573.20-5.68 575.85-2.94L575.85-2.94L575.85-2.94Q574.62-0.73 572.81 0.12L572.81 0.12L572.81 0.12Q571.00 0.98 568.28 0.98L568.28 0.98L568.28 0.98Q565.56 0.98 563.87-0.51L563.87-0.51L563.87-0.51Q562.18-2.01 562.18-5.10L562.18-5.10L562.18-5.10Q562.18-8.67 564.14-14.55L564.14-14.55L564.14-14.55Q566.10-20.38 569.04-24.84L569.04-24.84L569.04-24.84Q567.62-24.99 566.15-24.99L566.15-24.99L566.15-24.99Q563.11-24.99 562.62-23.86ZM608.73-5.44L608.73-5.44L608.73-5.44Q608.73-3.28 610.93-2.65L610.93-2.65L610.93-2.65Q610.39-0.83 608.29 0.15L608.29 0.15L608.29 0.15Q606.52 0.98 604.59 0.98L604.59 0.98L604.59 0.98Q602.65 0.98 601.65 0.47L601.65 0.47L601.65 0.47Q600.64-0.05 600.10-0.88L600.10-0.88L600.10-0.88Q599.22-2.16 599.22-4.56L599.22-4.56L599.22-4.56Q599.22-5.98 600.01-9.90L600.01-9.90L600.69-13.62L600.69-13.62Q601.52-17.89 601.52-19.45L601.52-19.45L601.52-19.45Q601.52-22.20 600.01-22.20L600.01-22.20L600.01-22.20Q598.09-22.20 596.87-19.40L596.87-19.40L596.87-19.40Q596.38-18.33 596.04-16.71L596.04-16.71L592.70 0L582.86 0.98L589.76-34.30L599.61-35.28L599.22-33.32L599.22-33.32Q597.85-25.77 596.67-23.23L596.67-23.23L596.67-23.23Q599.42-25.97 604.46-25.97L604.46-25.97L604.46-25.97Q609.81-25.97 610.79-22.44L610.79-22.44L610.79-22.44Q611.13-21.32 611.13-20.34L611.13-20.34L611.13-20.34Q611.13-19.36 611.05-18.60L611.05-18.60L611.05-18.60Q610.98-17.84 610.74-16.46L610.74-16.46L610.10-12.94L608.97-7.40L608.97-7.40Q608.73-6.27 608.73-5.44ZM634.75-8.28L634.75-8.28L634.75-8.28Q635.97-7.45 635.97-5.61L635.97-5.61L635.97-5.61Q635.97-3.77 635.04-2.60L635.04-2.60L635.04-2.60Q634.11-1.42 632.59-0.64L632.59-0.64L632.59-0.64Q629.45 0.98 626.07 0.98L626.07 0.98L626.07 0.98Q622.69 0.98 620.71 0.24L620.71 0.24L620.71 0.24Q618.72-0.49 617.40-1.86L617.40-1.86L617.40-1.86Q614.80-4.46 614.80-9.21L614.80-9.21L614.80-9.21Q614.80-16.61 618.82-21.12L618.82-21.12L618.82-21.12Q623.13-25.97 630.63-25.97L630.63-25.97L630.63-25.97Q635.29-25.97 637.59-24.01L637.59-24.01L637.59-24.01Q639.30-22.54 639.30-20.14L639.30-20.14L639.30-20.14Q639.30-11.52 624.41-11.52L624.41-11.52L624.41-11.52Q624.21-10.24 624.21-9.16L624.21-9.16L624.21-9.16Q624.21-6.91 625.22-6.05L625.22-6.05L625.22-6.05Q626.22-5.19 628.08-5.19L628.08-5.19L628.08-5.19Q629.94-5.19 631.93-6.05L631.93-6.05L631.93-6.05Q633.91-6.91 634.75-8.28ZM624.75-13.62L624.75-13.62L624.75-13.62Q628.23-13.62 630.24-15.78L630.24-15.78L630.24-15.78Q632.25-17.84 632.25-21.12L632.25-21.12L632.25-21.12Q632.25-22.25 631.83-22.86L631.83-22.86L631.83-22.86Q631.41-23.47 630.58-23.47L630.58-23.47L630.58-23.47Q629.75-23.47 629.04-23.15L629.04-23.15L629.04-23.15Q628.33-22.83 627.59-21.76L627.59-21.76L627.59-21.76Q625.78-19.31 624.75-13.62ZM671.79 0.98L671.79 0.98L671.79 0.98Q665.86 0.98 665.86-3.63L665.86-3.63L665.86-3.63Q665.91-4.90 666.30-7.06L666.30-7.06L667.18-11.56L667.18-11.56Q668.51-17.93 668.51-19.36L668.51-19.36L668.51-19.36Q668.51-22.20 666.84-22.20L666.84-22.20L666.84-22.20Q664.05-22.20 662.58-14.90L662.58-14.90L659.69 0L649.84 0.98L654.93-25.04L662.97-25.97L662.19-21.17L662.19-21.17Q664.49-25.97 671.55-25.97L671.55-25.97L671.55-25.97Q674.98-25.97 676.42-24.52L676.42-24.52L676.42-24.52Q677.87-23.08 677.87-19.85L677.87-19.85L677.87-19.85Q677.87-16.81 676.30-9.70L676.30-9.70L676.30-9.70Q675.56-6.52 675.56-5.32L675.56-5.32L675.56-5.32Q675.56-4.12 676.22-3.43L676.22-3.43L676.22-3.43Q676.89-2.74 677.87-2.65L677.87-2.65L677.87-2.65Q677.38-0.98 675.69 0L675.69 0L675.69 0Q674.00 0.98 671.79 0.98ZM701.63-8.28L701.63-8.28L701.63-8.28Q702.86-7.45 702.86-5.61L702.86-5.61L702.86-5.61Q702.86-3.77 701.93-2.60L701.93-2.60L701.93-2.60Q700.99-1.42 699.48-0.64L699.48-0.64L699.48-0.64Q696.34 0.98 692.96 0.98L692.96 0.98L692.96 0.98Q689.58 0.98 687.59 0.24L687.59 0.24L687.59 0.24Q685.61-0.49 684.29-1.86L684.29-1.86L684.29-1.86Q681.69-4.46 681.69-9.21L681.69-9.21L681.69-9.21Q681.69-16.61 685.71-21.12L685.71-21.12L685.71-21.12Q690.02-25.97 697.52-25.97L697.52-25.97L697.52-25.97Q702.17-25.97 704.47-24.01L704.47-24.01L704.47-24.01Q706.19-22.54 706.19-20.14L706.19-20.14L706.19-20.14Q706.19-11.52 691.29-11.52L691.29-11.52L691.29-11.52Q691.10-10.24 691.10-9.16L691.10-9.16L691.10-9.16Q691.10-6.91 692.10-6.05L692.10-6.05L692.10-6.05Q693.11-5.19 694.97-5.19L694.97-5.19L694.97-5.19Q696.83-5.19 698.81-6.05L698.81-6.05L698.81-6.05Q700.80-6.91 701.63-8.28ZM691.64-13.62L691.64-13.62L691.64-13.62Q695.11-13.62 697.12-15.78L697.12-15.78L697.12-15.78Q699.13-17.84 699.13-21.12L699.13-21.12L699.13-21.12Q699.13-22.25 698.72-22.86L698.72-22.86L698.72-22.86Q698.30-23.47 697.47-23.47L697.47-23.47L697.47-23.47Q696.63-23.47 695.92-23.15L695.92-23.15L695.92-23.15Q695.21-22.83 694.48-21.76L694.48-21.76L694.48-21.76Q692.66-19.31 691.64-13.62ZM714.37 0.15L714.37 0.15L714.37 0.15Q712.80 0.98 710.65 0.98L710.65 0.98L710.65 0.98Q708.49 0.98 707.32-0.12L707.32-0.12L707.32-0.12Q706.14-1.23 706.14-3.36L706.14-3.36L706.14-3.36Q706.14-5.49 707.63-7.57L707.63-7.57L707.63-7.57Q709.13-9.65 711.36-10.83L711.36-10.83L711.36-10.83Q713.59-12.01 715.16-12.69L715.16-12.69L712.07-19.80L712.07-19.80Q711.24-21.61 709.67-21.61L709.67-21.61L709.28-21.56L709.13-21.56L709.13-21.56Q709.42-23.28 711.43-24.60L711.43-24.60L711.43-24.60Q713.44-25.97 715.74-25.97L715.74-25.97L715.74-25.97Q719.47-25.97 721.18-22.25L721.18-22.25L721.57-21.46L723.68-16.27L723.68-16.27Q725.00-16.86 725.57-17.96L725.57-17.96L725.57-17.96Q726.13-19.06 726.13-21.24L726.13-21.24L726.13-21.24Q726.13-23.42 724.96-24.79L724.96-24.79L724.96-24.79Q726.82-25.97 729.27-25.97L729.27-25.97L729.27-25.97Q733.68-25.97 733.68-21.71L733.68-21.71L733.68-21.71Q733.68-17.05 727.85-14.36L727.85-14.36L724.91-12.99L727.55-6.17L727.55-6.17Q728.34-4.12 729.76-3.23L729.76-3.23L729.76-3.23Q730.35-2.84 731.03-2.79L731.03-2.79L731.03-2.79Q729.56-0.39 726.38 0.69L726.38 0.69L726.38 0.69Q725.40 0.98 724.07 0.98L724.07 0.98L724.07 0.98Q722.75 0.98 721.23 0.07L721.23 0.07L721.23 0.07Q719.71-0.83 719.17-2.25L719.17-2.25L716.48-9.26L716.48-9.26Q713.73-8.04 713.73-3.58L713.73-3.58L713.73-3.58Q713.73-1.52 714.37 0.15ZM735.78-4.90L735.78-4.90L735.78-4.90Q735.78-6.22 736.47-9.55L736.47-9.55L739.07-22.79L736.18-22.79L736.37-24.26L736.37-24.26Q742.25-26.02 747.94-30.33L747.94-30.33L750.29-30.33L749.11-24.99L752.93-24.99L752.49-22.79L748.72-22.79L746.22-9.55L746.22-9.55Q745.58-6.52 745.58-5.49L745.58-5.49L745.58-5.49Q745.58-3.14 747.64-2.65L747.64-2.65L747.64-2.65Q747.15-0.98 745.39 0L745.39 0L745.39 0Q743.62 0.98 741.13 0.98L741.13 0.98L741.13 0.98Q738.63 0.98 737.21-0.59L737.21-0.59L737.21-0.59Q735.78-2.16 735.78-4.90ZM777.43-17.20L777.43-17.20L777.43-17.20Q778.12-19.01 778.12-20.58L778.12-20.58L778.12-20.58Q778.12-23.47 775.77-23.47L775.77-23.47L775.77-23.47Q774.54-23.47 773.54-22.37L773.54-22.37L773.54-22.37Q772.53-21.27 772.53-19.89L772.53-19.89L772.53-19.89Q772.53-18.91 773.32-18.13L773.32-18.13L773.32-18.13Q774.45-17.05 777.34-15.29L777.34-15.29L777.34-15.29Q780.23-13.52 781.33-12.08L781.33-12.08L781.33-12.08Q782.43-10.63 782.43-8.65L782.43-8.65L782.43-8.65Q782.43-6.66 781.48-4.85L781.48-4.85L781.48-4.85Q780.52-3.04 778.81-1.76L778.81-1.76L778.81-1.76Q775.13 0.98 769.25 0.98L769.25 0.98L769.25 0.98Q766.07 0.98 763.62-0.69L763.62-0.69L763.62-0.69Q761.17-2.30 761.17-4.21L761.17-4.21L761.17-4.21Q761.17-6.13 762.56-7.25L762.56-7.25L762.56-7.25Q763.96-8.38 766.02-8.38L766.02-8.38L766.02-8.38Q768.08-8.38 769.35-7.60L769.35-7.60L769.35-7.60Q768.71-5.98 768.71-4.90L768.71-4.90L768.71-4.90Q768.71-1.67 771.46-1.67L771.46-1.67L771.46-1.67Q772.63-1.67 773.42-2.40L773.42-2.40L773.42-2.40Q774.20-3.14 774.20-4.41L774.20-4.41L774.20-4.41Q774.20-6.91 769.99-9.55L769.99-9.55L769.99-9.55Q766.56-11.81 765.77-12.69L765.77-12.69L765.77-12.69Q764.45-14.26 764.45-16.22L764.45-16.22L764.45-16.22Q764.45-18.18 765.38-20.04L765.38-20.04L765.38-20.04Q766.31-21.90 768.03-23.23L768.03-23.23L768.03-23.23Q771.60-25.97 777.83-25.97L777.83-25.97L777.83-25.97Q781.01-25.97 782.90-24.70L782.90-24.70L782.90-24.70Q784.78-23.42 784.78-21.27L784.78-21.27L784.78-21.27Q784.78-19.11 783.49-17.89L783.49-17.89L783.49-17.89Q782.19-16.66 779.84-16.66L779.84-16.66L779.84-16.66Q778.22-16.66 777.43-17.20ZM809.43-3.36L809.43-3.36L809.43-3.36Q807.37-1.27 804.56-0.15L804.56-0.15L804.56-0.15Q801.74 0.98 798.95 0.98L798.95 0.98L798.95 0.98Q796.15 0.98 795.17 0.49L795.17 0.49L793.65 8.82L783.71 9.80L790.47-24.99L798.46-25.82L797.82-22.44L797.82-22.44Q799.88-25.92 804.14-25.92L804.14-25.92L804.14-25.92Q808.94-25.92 811.49-22.83L811.49-22.83L811.49-22.83Q813.74-20.04 813.74-15.78L813.74-15.78L813.74-15.78Q813.74-11.52 812.62-8.48L812.62-8.48L812.62-8.48Q811.49-5.44 809.43-3.36ZM798.36-17.10L795.76-2.74L795.76-2.74Q796.79-1.86 798.06-1.86L798.06-1.86L798.06-1.86Q799.34-1.86 800.07-2.35L800.07-2.35L800.07-2.35Q800.81-2.84 801.35-3.82L801.35-3.82L801.35-3.82Q802.82-6.47 803.99-14.50L803.99-14.50L803.99-14.50Q804.34-16.86 804.34-19.16L804.34-19.16L804.34-19.16Q804.34-21.46 803.82-22.20L803.82-22.20L803.82-22.20Q803.31-22.93 802.33-22.93L802.33-22.93L802.33-22.93Q799.34-22.93 798.36-17.10L798.36-17.10ZM827.37 0.98L827.37 0.98L827.37 0.98Q816.59 0.98 816.59-9.16L816.59-9.16L816.59-9.16Q816.59-16.37 820.55-21.02L820.55-21.02L820.55-21.02Q824.77-25.97 832.07-25.97L832.07-25.97L832.07-25.97Q837.36-25.97 840.06-23.52L840.06-23.52L840.06-23.52Q842.75-21.07 842.75-15.93L842.75-15.93L842.75-15.93Q842.75-8.09 838.54-3.53L838.54-3.53L838.54-3.53Q834.42 0.98 827.37 0.98ZM828.64-20.34L828.64-20.34L828.64-20.34Q828.05-19.01 827.59-17.03L827.59-17.03L827.59-17.03Q827.12-15.04 826.53-11.91L826.53-11.91L826.53-11.91Q825.94-8.77 825.94-4.90L825.94-4.90L825.94-4.90Q825.94-3.63 826.36-2.79L826.36-2.79L826.36-2.79Q826.78-1.96 827.90-1.96L827.90-1.96L827.90-1.96Q829.03-1.96 829.74-2.50L829.74-2.50L829.74-2.50Q830.45-3.04 830.99-4.31L830.99-4.31L830.99-4.31Q831.97-6.57 832.76-10.76L832.76-10.76L832.76-10.76Q833.54-14.95 833.61-16.76L833.61-16.76L833.61-16.76Q833.69-18.57 833.69-19.92L833.69-19.92L833.69-19.92Q833.69-21.27 833.29-22.15L833.29-22.15L833.29-22.15Q832.90-23.03 831.80-23.03L831.80-23.03L831.80-23.03Q830.70-23.03 829.96-22.34L829.96-22.34L829.96-22.34Q829.23-21.66 828.64-20.34ZM860.98-13.77L860.98-13.77L860.98-13.77Q862.74-16.91 862.74-20.09L862.74-20.09L862.74-20.09Q862.74-22.20 861.22-22.20L861.22-22.20L861.22-22.20Q860.05-22.20 858.82-20.19L858.82-20.19L858.82-20.19Q857.55-18.18 857.16-15.58L857.16-15.58L854.61 0L844.47 0.98L849.46-24.99L857.55-25.97L856.67-21.02L856.67-21.02Q859.07-25.97 864.46-25.97L864.46-25.97L864.46-25.97Q867.30-25.97 868.84-24.50L868.84-24.50L868.84-24.50Q870.39-23.03 870.39-20.02L870.39-20.02L870.39-20.02Q870.39-17.00 868.40-15.09L868.40-15.09L868.40-15.09Q866.42-13.18 863.04-13.18L863.04-13.18L863.04-13.18Q861.57-13.18 860.98-13.77ZM871.96-4.90L871.96-4.90L871.96-4.90Q871.96-6.22 872.64-9.55L872.64-9.55L875.24-22.79L872.35-22.79L872.54-24.26L872.54-24.26Q878.42-26.02 884.11-30.33L884.11-30.33L886.46-30.33L885.28-24.99L889.11-24.99L888.66-22.79L884.89-22.79L882.39-9.55L882.39-9.55Q881.76-6.52 881.76-5.49L881.76-5.49L881.76-5.49Q881.76-3.14 883.81-2.65L883.81-2.65L883.81-2.65Q883.32-0.98 881.56 0L881.56 0L881.56 0Q879.80 0.98 877.30 0.98L877.30 0.98L877.30 0.98Q874.80 0.98 873.38-0.59L873.38-0.59L873.38-0.59Q871.96-2.16 871.96-4.90ZM900.62-2.70L900.62-2.70L900.62-2.70Q899.10 0.98 894.25 0.98L894.25 0.98L894.25 0.98Q891.75 0.98 890.18-0.73L890.18-0.73L890.18-0.73Q888.86-2.25 888.86-3.77L888.86-3.77L888.86-3.77Q888.86-7.74 890.67-15.48L890.67-15.48L892.49-24.99L902.43-25.97L899.44-10.49L899.44-10.49Q898.61-6.86 898.61-5.59L898.61-5.59L898.61-5.59Q898.61-2.79 900.62-2.70ZM893.37-31.80L893.37-31.80L893.37-31.80Q893.37-33.71 894.96-34.74L894.96-34.74L894.96-34.74Q896.55-35.77 898.86-35.77L898.86-35.77L898.86-35.77Q901.16-35.77 902.56-34.74L902.56-34.74L902.56-34.74Q903.95-33.71 903.95-31.80L903.95-31.80L903.95-31.80Q903.95-29.89 902.41-28.91L902.41-28.91L902.41-28.91Q900.87-27.93 898.56-27.93L898.56-27.93L898.56-27.93Q896.26-27.93 894.81-28.91L894.81-28.91L894.81-28.91Q893.37-29.89 893.37-31.80ZM925.51 0.98L925.51 0.98L925.51 0.98Q919.58 0.98 919.58-3.63L919.58-3.63L919.58-3.63Q919.63-4.90 920.02-7.06L920.02-7.06L920.91-11.56L920.91-11.56Q922.23-17.93 922.23-19.36L922.23-19.36L922.23-19.36Q922.23-22.20 920.56-22.20L920.56-22.20L920.56-22.20Q917.77-22.20 916.30-14.90L916.30-14.90L913.41 0L903.56 0.98L908.66-25.04L916.69-25.97L915.91-21.17L915.91-21.17Q918.21-25.97 925.27-25.97L925.27-25.97L925.27-25.97Q928.70-25.97 930.14-24.52L930.14-24.52L930.14-24.52Q931.59-23.08 931.59-19.85L931.59-19.85L931.59-19.85Q931.59-16.81 930.02-9.70L930.02-9.70L930.02-9.70Q929.28-6.52 929.28-5.32L929.28-5.32L929.28-5.32Q929.28-4.12 929.95-3.43L929.95-3.43L929.95-3.43Q930.61-2.74 931.59-2.65L931.59-2.65L931.59-2.65Q931.10-0.98 929.41 0L929.41 0L929.41 0Q927.72 0.98 925.51 0.98ZM938.99-20.48L938.99-20.48L938.99-20.48Q940.65-22.83 943.18-24.40L943.18-24.40L943.18-24.40Q945.70-25.97 948.79-25.97L948.79-25.97L948.79-25.97Q951.87-25.97 953.34-24.99L953.34-24.99L962.95-25.97L959.62-7.15L959.62-7.15Q957.90 2.45 954.27 6.22L954.27 6.22L954.27 6.22Q950.80 9.80 944.03 9.80L944.03 9.80L944.03 9.80Q938.89 9.80 935.95 8.18L935.95 8.18L935.95 8.18Q933.01 6.57 933.01 3.87L933.01 3.87L933.01 3.87Q933.01 1.86 934.53 0.71L934.53 0.71L934.53 0.71Q936.05-0.44 938.40-0.44L938.40-0.44L938.40-0.44Q940.46-0.44 942.02 0.49L942.02 0.49L942.02 0.49Q942.96 0.98 943.40 1.67L943.40 1.67L943.40 1.67Q942.27 2.65 942.27 4.26L942.27 4.26L942.27 4.26Q942.27 6.37 944.23 6.37L944.23 6.37L944.23 6.37Q947.51 6.37 949.38-1.37L949.38-1.37L949.38-1.37Q949.91-3.48 950.35-5.59L950.35-5.59L950.35-5.59Q948.15-2.89 943.15-2.89L943.15-2.89L943.15-2.89Q939.67-2.89 937.66-4.56L937.66-4.56L937.66-4.56Q935.65-6.22 935.65-10.14L935.65-10.14L935.65-10.14Q935.65-12.59 936.49-15.36L936.49-15.36L936.49-15.36Q937.32-18.13 938.99-20.48ZM945.36-10.00L945.36-10.00L945.36-10.00Q945.36-6.66 947.07-6.66L947.07-6.66L947.07-6.66Q948.25-6.66 949.38-7.94L949.38-7.94L949.38-7.94Q950.26-8.97 950.60-10.49L950.60-10.49L953.10-23.08L953.10-23.08Q952.85-23.13 952.61-23.23L952.61-23.23L952.61-23.23Q952.12-23.42 951.48-23.42L951.48-23.42L951.48-23.42Q948.49-23.42 946.73-18.52L946.73-18.52L946.73-18.52Q945.36-14.70 945.36-10.00ZM990.29-13.77L990.29-13.77L990.29-13.77Q992.05-16.91 992.05-20.09L992.05-20.09L992.05-20.09Q992.05-22.20 990.53-22.20L990.53-22.20L990.53-22.20Q989.36-22.20 988.13-20.19L988.13-20.19L988.13-20.19Q986.86-18.18 986.47-15.58L986.47-15.58L983.92 0L973.78 0.98L978.77-24.99L986.86-25.97L985.98-21.02L985.98-21.02Q988.38-25.97 993.77-25.97L993.77-25.97L993.77-25.97Q996.61-25.97 998.15-24.50L998.15-24.50L998.15-24.50Q999.70-23.03 999.70-20.02L999.70-20.02L999.70-20.02Q999.70-17.00 997.71-15.09L997.71-15.09L997.71-15.09Q995.73-13.18 992.35-13.18L992.35-13.18L992.35-13.18Q990.88-13.18 990.29-13.77ZM1020.33-8.28L1020.33-8.28L1020.33-8.28Q1021.55-7.45 1021.55-5.61L1021.55-5.61L1021.55-5.61Q1021.55-3.77 1020.62-2.60L1020.62-2.60L1020.62-2.60Q1019.69-1.42 1018.17-0.64L1018.17-0.64L1018.17-0.64Q1015.03 0.98 1011.65 0.98L1011.65 0.98L1011.65 0.98Q1008.27 0.98 1006.29 0.24L1006.29 0.24L1006.29 0.24Q1004.30-0.49 1002.98-1.86L1002.98-1.86L1002.98-1.86Q1000.38-4.46 1000.38-9.21L1000.38-9.21L1000.38-9.21Q1000.38-16.61 1004.40-21.12L1004.40-21.12L1004.40-21.12Q1008.71-25.97 1016.21-25.97L1016.21-25.97L1016.21-25.97Q1020.87-25.97 1023.17-24.01L1023.17-24.01L1023.17-24.01Q1024.88-22.54 1024.88-20.14L1024.88-20.14L1024.88-20.14Q1024.88-11.52 1009.99-11.52L1009.99-11.52L1009.99-11.52Q1009.79-10.24 1009.79-9.16L1009.79-9.16L1009.79-9.16Q1009.79-6.91 1010.80-6.05L1010.80-6.05L1010.80-6.05Q1011.80-5.19 1013.66-5.19L1013.66-5.19L1013.66-5.19Q1015.52-5.19 1017.51-6.05L1017.51-6.05L1017.51-6.05Q1019.49-6.91 1020.33-8.28ZM1010.33-13.62L1010.33-13.62L1010.33-13.62Q1013.81-13.62 1015.82-15.78L1015.82-15.78L1015.82-15.78Q1017.83-17.84 1017.83-21.12L1017.83-21.12L1017.83-21.12Q1017.83-22.25 1017.41-22.86L1017.41-22.86L1017.41-22.86Q1017.00-23.47 1016.16-23.47L1016.16-23.47L1016.16-23.47Q1015.33-23.47 1014.62-23.15L1014.62-23.15L1014.62-23.15Q1013.91-22.83 1013.17-21.76L1013.17-21.76L1013.17-21.76Q1011.36-19.31 1010.33-13.62ZM1044.34-24.16L1044.34-24.16L1044.34-24.16Q1045.95-25.97 1048.75-25.97L1048.75-25.97L1048.75-25.97Q1050.46-25.97 1051.79-25.04L1051.79-25.04L1051.79-25.04Q1053.11-24.11 1053.11-22.37L1053.11-22.37L1053.11-22.37Q1053.11-20.63 1052.57-18.77L1052.57-18.77L1052.57-18.77Q1052.03-16.91 1051.20-14.99L1051.20-14.99L1051.20-14.99Q1049.53-11.27 1047.23-8.18L1047.23-8.18L1047.23-8.18Q1043.99-3.72 1040.88-1.37L1040.88-1.37L1040.88-1.37Q1037.77 0.98 1034.39 0.98L1034.39 0.98L1034.39 0.98Q1031.65 0.98 1029.98 0.34L1029.98 0.34L1029.98 0.34Q1029.69-9.95 1029.32-13.62L1029.32-13.62L1029.32-13.62Q1028.95-17.30 1028.66-19.31L1028.66-19.31L1028.66-19.31Q1028.17-23.23 1026.70-24.16L1026.70-24.16L1026.70-24.16Q1027.82-25.14 1028.93-25.55L1028.93-25.55L1028.93-25.55Q1030.03-25.97 1032.31-25.97L1032.31-25.97L1032.31-25.97Q1034.59-25.97 1036.20-24.18L1036.20-24.18L1036.20-24.18Q1037.82-22.39 1038.14-19.23L1038.14-19.23L1038.14-19.23Q1038.46-16.07 1038.46-12.25L1038.46-12.25L1038.46-12.25Q1038.46-8.43 1038.16-3.82L1038.16-3.82L1038.16-3.82Q1039.68-4.90 1041.30-8.18L1041.30-8.18L1041.30-8.18Q1043.50-12.74 1044.29-18.23L1044.29-18.23L1044.29-18.23Q1044.53-19.89 1044.53-21.66L1044.53-21.66L1044.53-21.66Q1044.53-23.42 1044.34-24.16ZM1065.11 0.98L1065.11 0.98L1065.11 0.98Q1054.33 0.98 1054.33-9.16L1054.33-9.16L1054.33-9.16Q1054.33-16.37 1058.30-21.02L1058.30-21.02L1058.30-21.02Q1062.52-25.97 1069.82-25.97L1069.82-25.97L1069.82-25.97Q1075.11-25.97 1077.80-23.52L1077.80-23.52L1077.80-23.52Q1080.50-21.07 1080.50-15.93L1080.50-15.93L1080.50-15.93Q1080.50-8.09 1076.29-3.53L1076.29-3.53L1076.29-3.53Q1072.17 0.98 1065.11 0.98ZM1066.39-20.34L1066.39-20.34L1066.39-20.34Q1065.80-19.01 1065.33-17.03L1065.33-17.03L1065.33-17.03Q1064.87-15.04 1064.28-11.91L1064.28-11.91L1064.28-11.91Q1063.69-8.77 1063.69-4.90L1063.69-4.90L1063.69-4.90Q1063.69-3.63 1064.11-2.79L1064.11-2.79L1064.11-2.79Q1064.53-1.96 1065.65-1.96L1065.65-1.96L1065.65-1.96Q1066.78-1.96 1067.49-2.50L1067.49-2.50L1067.49-2.50Q1068.20-3.04 1068.74-4.31L1068.74-4.31L1068.74-4.31Q1069.72-6.57 1070.50-10.76L1070.50-10.76L1070.50-10.76Q1071.29-14.95 1071.36-16.76L1071.36-16.76L1071.36-16.76Q1071.43-18.57 1071.43-19.92L1071.43-19.92L1071.43-19.92Q1071.43-21.27 1071.04-22.15L1071.04-22.15L1071.04-22.15Q1070.65-23.03 1069.55-23.03L1069.55-23.03L1069.55-23.03Q1068.45-23.03 1067.71-22.34L1067.71-22.34L1067.71-22.34Q1066.98-21.66 1066.39-20.34ZM1095.10-2.70L1095.10-2.70L1095.10-2.70Q1093.58 0.98 1088.73 0.98L1088.73 0.98L1088.73 0.98Q1086.28 0.98 1084.71-0.73L1084.71-0.73L1084.71-0.73Q1083.44-2.16 1083.44-3.77L1083.44-3.77L1083.44-3.77Q1083.44-7.45 1085.15-15.48L1085.15-15.48L1088.73-34.30L1098.68-35.28L1093.93-10.49L1093.93-10.49Q1093.09-6.86 1093.09-5.59L1093.09-5.59L1093.09-5.59Q1093.09-2.79 1095.10-2.70ZM1115.00-2.06L1115.00-2.06L1115.00-2.06Q1112.64 0.98 1106.81 0.98L1106.81 0.98L1106.81 0.98Q1103.77 0.98 1101.57-0.86L1101.57-0.86L1101.57-0.86Q1099.36-2.70 1099.36-5.34L1099.36-5.34L1099.36-5.34Q1099.36-6.81 1099.51-7.55L1099.51-7.55L1102.79-24.99L1112.74-25.97L1109.16-7.06L1109.16-7.06Q1108.97-5.98 1108.97-5.34L1108.97-5.34L1108.97-5.34Q1108.97-2.50 1110.68-2.50L1110.68-2.50L1110.68-2.50Q1112.59-2.50 1113.97-5.10L1113.97-5.10L1113.97-5.10Q1114.41-5.93 1114.60-7.01L1114.60-7.01L1118.08-24.99L1127.74-25.97L1124.11-6.86L1124.11-6.86Q1123.96-6.13 1123.96-5.34L1123.96-5.34L1123.96-5.34Q1123.96-4.56 1124.40-3.70L1124.40-3.70L1124.40-3.70Q1124.84-2.84 1126.27-2.65L1126.27-2.65L1126.27-2.65Q1125.97-1.47 1124.94-0.69L1124.94-0.69L1124.94-0.69Q1122.79 0.98 1120.46 0.98L1120.46 0.98L1120.46 0.98Q1118.13 0.98 1116.76 0.15L1116.76 0.15L1116.76 0.15Q1115.39-0.69 1115.00-2.06ZM1131.17-4.90L1131.17-4.90L1131.17-4.90Q1131.17-6.22 1131.85-9.55L1131.85-9.55L1134.45-22.79L1131.56-22.79L1131.75-24.26L1131.75-24.26Q1137.63-26.02 1143.32-30.33L1143.32-30.33L1145.67-30.33L1144.49-24.99L1148.32-24.99L1147.87-22.79L1144.10-22.79L1141.60-9.55L1141.60-9.55Q1140.97-6.52 1140.97-5.49L1140.97-5.49L1140.97-5.49Q1140.97-3.14 1143.02-2.65L1143.02-2.65L1143.02-2.65Q1142.53-0.98 1140.77 0L1140.77 0L1140.77 0Q1139.01 0.98 1136.51 0.98L1136.51 0.98L1136.51 0.98Q1134.01 0.98 1132.59-0.59L1132.59-0.59L1132.59-0.59Q1131.17-2.16 1131.17-4.90ZM1159.83-2.70L1159.83-2.70L1159.83-2.70Q1158.31 0.98 1153.46 0.98L1153.46 0.98L1153.46 0.98Q1150.96 0.98 1149.39-0.73L1149.39-0.73L1149.39-0.73Q1148.07-2.25 1148.07-3.77L1148.07-3.77L1148.07-3.77Q1148.07-7.74 1149.88-15.48L1149.88-15.48L1151.70-24.99L1161.64-25.97L1158.65-10.49L1158.65-10.49Q1157.82-6.86 1157.82-5.59L1157.82-5.59L1157.82-5.59Q1157.82-2.79 1159.83-2.70ZM1152.58-31.80L1152.58-31.80L1152.58-31.80Q1152.58-33.71 1154.17-34.74L1154.17-34.74L1154.17-34.74Q1155.76-35.77 1158.07-35.77L1158.07-35.77L1158.07-35.77Q1160.37-35.77 1161.77-34.74L1161.77-34.74L1161.77-34.74Q1163.16-33.71 1163.16-31.80L1163.16-31.80L1163.16-31.80Q1163.16-29.89 1161.62-28.91L1161.62-28.91L1161.62-28.91Q1160.08-27.93 1157.77-27.93L1157.77-27.93L1157.77-27.93Q1155.47-27.93 1154.02-28.91L1154.02-28.91L1154.02-28.91Q1152.58-29.89 1152.58-31.80ZM1174.68 0.98L1174.68 0.98L1174.68 0.98Q1163.90 0.98 1163.90-9.16L1163.90-9.16L1163.90-9.16Q1163.90-16.37 1167.87-21.02L1167.87-21.02L1167.87-21.02Q1172.08-25.97 1179.38-25.97L1179.38-25.97L1179.38-25.97Q1184.67-25.97 1187.37-23.52L1187.37-23.52L1187.37-23.52Q1190.06-21.07 1190.06-15.93L1190.06-15.93L1190.06-15.93Q1190.06-8.09 1185.85-3.53L1185.85-3.53L1185.85-3.53Q1181.73 0.98 1174.68 0.98ZM1175.95-20.34L1175.95-20.34L1175.95-20.34Q1175.36-19.01 1174.90-17.03L1174.90-17.03L1174.90-17.03Q1174.43-15.04 1173.84-11.91L1173.84-11.91L1173.84-11.91Q1173.26-8.77 1173.26-4.90L1173.26-4.90L1173.26-4.90Q1173.26-3.63 1173.67-2.79L1173.67-2.79L1173.67-2.79Q1174.09-1.96 1175.22-1.96L1175.22-1.96L1175.22-1.96Q1176.34-1.96 1177.05-2.50L1177.05-2.50L1177.05-2.50Q1177.76-3.04 1178.30-4.31L1178.30-4.31L1178.30-4.31Q1179.28-6.57 1180.07-10.76L1180.07-10.76L1180.07-10.76Q1180.85-14.95 1180.92-16.76L1180.92-16.76L1180.92-16.76Q1181.00-18.57 1181.00-19.92L1181.00-19.92L1181.00-19.92Q1181.00-21.27 1180.61-22.15L1180.61-22.15L1180.61-22.15Q1180.21-23.03 1179.11-23.03L1179.11-23.03L1179.11-23.03Q1178.01-23.03 1177.27-22.34L1177.27-22.34L1177.27-22.34Q1176.54-21.66 1175.95-20.34ZM1213.68 0.98L1213.68 0.98L1213.68 0.98Q1207.75 0.98 1207.75-3.63L1207.75-3.63L1207.75-3.63Q1207.80-4.90 1208.19-7.06L1208.19-7.06L1209.08-11.56L1209.08-11.56Q1210.40-17.93 1210.40-19.36L1210.40-19.36L1210.40-19.36Q1210.40-22.20 1208.73-22.20L1208.73-22.20L1208.73-22.20Q1205.94-22.20 1204.47-14.90L1204.47-14.90L1201.58 0L1191.73 0.98L1196.83-25.04L1204.86-25.97L1204.08-21.17L1204.08-21.17Q1206.38-25.97 1213.44-25.97L1213.44-25.97L1213.44-25.97Q1216.87-25.97 1218.31-24.52L1218.31-24.52L1218.31-24.52Q1219.76-23.08 1219.76-19.85L1219.76-19.85L1219.76-19.85Q1219.76-16.81 1218.19-9.70L1218.19-9.70L1218.19-9.70Q1217.45-6.52 1217.45-5.32L1217.45-5.32L1217.45-5.32Q1217.45-4.12 1218.12-3.43L1218.12-3.43L1218.12-3.43Q1218.78-2.74 1219.76-2.65L1219.76-2.65L1219.76-2.65Q1219.27-0.98 1217.58 0L1217.58 0L1217.58 0Q1215.89 0.98 1213.68 0.98Z" fill="url(#editing-shadow-gradient2)"></path></g></g></g><style>text {
  font-size: 64px;
  font-family: Arial Black;
  dominant-baseline: central;
  text-anchor: middle;
}</style></svg>